<svg width="22" height="18" viewBox="0 0 22 18" fill="none" xmlns="http://www.w3.org/2000/svg">
<path d="M5.48593 14.129C3.64093 12.819 2.18093 11.115 1.35593 10.039C1.12523 9.74198 1 9.37659 1 9.0005C1 8.62441 1.12523 8.25902 1.35593 7.962C2.84893 6.013 6.43093 2 10.6129 2C12.4889 2 14.2429 2.807 15.7429 3.874" stroke="#939393" stroke-width="2" stroke-linecap="round" stroke-linejoin="round"/>
<path d="M12.7429 6.887C12.4652 6.60467 12.1343 6.38011 11.7694 6.22628C11.4045 6.07246 11.0127 5.99241 10.6167 5.99075C10.2207 5.98909 9.82825 6.06586 9.46205 6.21662C9.09585 6.36738 8.76312 6.58916 8.48306 6.86915C8.20299 7.14915 7.98114 7.48182 7.83029 7.84799C7.67944 8.21416 7.60258 8.60657 7.60415 9.00258C7.60572 9.3986 7.68567 9.79039 7.83941 10.1554C7.99315 10.5203 8.21763 10.8512 8.4999 11.129" stroke="#939393" stroke-width="2" stroke-linecap="round" stroke-linejoin="round"/>
<path d="M2.61292 17L18.6129 1" stroke="#939393" stroke-width="2" stroke-linecap="round" stroke-linejoin="round"/>
<path d="M8.61292 15.704C9.26212 15.8972 9.93557 15.9969 10.6129 16C14.7949 16 18.3769 11.987 19.8699 10.038C20.1006 9.74071 20.2256 9.37509 20.2255 8.99883C20.2253 8.62256 20.0998 8.25707 19.8689 7.96C19.3442 7.27549 18.7813 6.62112 18.1829 6" stroke="#939393" stroke-width="2" stroke-linecap="round" stroke-linejoin="round"/>
</svg>
