<svg width="15" height="17" viewBox="0 0 15 17" fill="none" xmlns="http://www.w3.org/2000/svg">
<path d="M14.4289 16.0223C14.0703 16.3809 13.584 16.5823 13.0769 16.5823C12.5698 16.5823 12.0835 16.3809 11.7249 16.0223L7.5008 11.1943L3.27669 16.0207C3.09967 16.2006 2.88877 16.3437 2.65617 16.4418C2.42357 16.5398 2.17387 16.5908 1.92146 16.5918C1.66906 16.5928 1.41894 16.5439 1.18555 16.4478C0.95216 16.3516 0.740109 16.2103 0.561629 16.0318C0.383149 15.8533 0.241774 15.6412 0.145656 15.4079C0.0495385 15.1745 0.000581364 14.9243 0.00160914 14.6719C0.00263691 14.4195 0.0536289 14.1698 0.151644 13.9372C0.249659 13.7046 0.392758 13.4937 0.572685 13.3167L4.96729 8.2975L0.571092 3.2751C0.391164 3.09808 0.248066 2.88718 0.150051 2.65458C0.0520356 2.42198 0.00104363 2.17228 1.58527e-05 1.91987C-0.00101192 1.66746 0.0479452 1.41735 0.144063 1.18396C0.24018 0.950567 0.381556 0.738516 0.560036 0.560036C0.738516 0.381556 0.950567 0.24018 1.18396 0.144063C1.41735 0.0479452 1.66746 -0.00101192 1.91987 1.58527e-05C2.17227 0.00104363 2.42198 0.0520357 2.65458 0.150051C2.88718 0.248066 3.09807 0.391164 3.27509 0.571092L7.5008 5.40069L11.7249 0.571092C11.9019 0.391164 12.1128 0.248066 12.3454 0.150051C12.578 0.0520357 12.8277 0.00104363 13.0801 1.58527e-05C13.3325 -0.00101192 13.5827 0.0479452 13.816 0.144063C14.0494 0.24018 14.2615 0.381556 14.44 0.560036C14.6184 0.738516 14.7598 0.950567 14.8559 1.18396C14.9521 1.41735 15.001 1.66746 15 1.91987C14.999 2.17228 14.948 2.42198 14.8499 2.65458C14.7519 2.88718 14.6088 3.09808 14.4289 3.2751L10.0343 8.2975L14.4289 13.3167C14.6067 13.4943 14.7477 13.7052 14.8439 13.9373C14.9402 14.1694 14.9897 14.4182 14.9897 14.6695C14.9897 14.9208 14.9402 15.1696 14.8439 15.4017C14.7477 15.6339 14.6067 15.8447 14.4289 16.0223Z" fill="white"/>
</svg>
