<svg width="15" height="16" viewBox="0 0 15 16" fill="none" xmlns="http://www.w3.org/2000/svg">
<path fill-rule="evenodd" clip-rule="evenodd" d="M11.5975 3.63672C11.5975 5.07881 11.2391 6.95964 10.6879 6.67422C10.4625 7.41035 9.98922 8.04578 9.3485 8.4726C8.70779 8.89943 7.93909 9.09135 7.17294 9.01577C6.40679 8.94019 5.69042 8.60177 5.14545 8.05798C4.60048 7.51419 4.26052 6.79854 4.18329 6.03256C3.63621 5.07547 2.91871 3.15755 4.76329 1.66255C4.79662 1.65172 4.81663 1.56172 4.84663 1.42922C4.96079 0.927972 5.21371 -0.186195 6.80912 0.0267218C8.03954 0.190472 11.5975 0.825889 11.5975 3.63714V3.63672ZM10.0116 4.54589C10.0116 4.54589 9.82329 5.09672 9.99996 5.71047C9.99766 6.36488 9.73886 6.9923 9.27912 7.45802C8.81938 7.92374 8.19535 8.19062 7.54102 8.20137C6.8867 8.21211 6.25425 7.96586 5.77946 7.51549C5.30467 7.06512 5.02541 6.44654 5.00162 5.79255C5.06204 5.56339 5.06204 5.17547 5.06163 4.74422C5.06121 3.96631 5.06038 3.04839 5.41663 2.67422C7.91204 4.33631 10.0116 4.54589 10.0116 4.54589Z" fill="white"/>
<path d="M2.91667 12.8826C2.91667 12.4317 3.15542 12.0367 3.51375 11.8167C3.5001 11.7649 3.48732 11.7128 3.47542 11.6605C3.41219 11.3758 3.36282 11.0883 3.3275 10.7988C3.2917 10.5215 3.27014 10.2425 3.26292 9.96297C1.50417 10.6534 0 11.8567 0 13.1201V15.3826H15V13.1201C15 11.9101 13.6208 10.7555 11.9592 10.0534V10.0651C11.9667 10.3192 11.9525 10.6109 11.925 10.8913C11.9 11.1513 11.8629 11.4105 11.8183 11.6326H12.0833C12.1607 11.6326 12.2365 11.6542 12.3023 11.6949C12.3681 11.7356 12.4213 11.7938 12.4558 11.863L12.8725 12.6963C12.9017 12.7542 12.9167 12.818 12.9167 12.8826V13.7159C12.9167 13.8264 12.8728 13.9324 12.7946 14.0105C12.7165 14.0887 12.6105 14.1326 12.5 14.1326H11.6667V13.2992H12.0833V12.9809L11.8258 12.4659H10.6742L10.4167 12.9809V13.2992H10.8333V14.1326H10C9.88949 14.1326 9.78351 14.0887 9.70537 14.0105C9.62723 13.9324 9.58333 13.8264 9.58333 13.7159V12.8826C9.58333 12.818 9.59833 12.7542 9.6275 12.6963L10.0442 11.863C10.0787 11.7938 10.1319 11.7356 10.1977 11.6949C10.2635 11.6542 10.3393 11.6326 10.4167 11.6326H10.9646C10.9737 11.5967 10.9829 11.5571 10.9921 11.5134C11.0337 11.3171 11.0708 11.0684 11.0958 10.8113C11.1208 10.5538 11.1325 10.2984 11.1262 10.0884C11.1247 10.0014 11.1179 9.91456 11.1058 9.82839C11.0967 9.76922 11.0875 9.74214 11.0858 9.7363C11.0854 9.73505 11.085 9.73464 11.0858 9.73547L11.0871 9.73505C10.866 9.66637 10.6424 9.60618 10.4167 9.55464C10.2071 9.50672 9.99042 9.79505 9.89583 9.97547H5C4.98783 9.95225 4.97589 9.92892 4.96417 9.90547C4.87583 9.72964 4.76708 9.51255 4.58333 9.55464C4.42292 9.59089 4.2625 9.63255 4.10208 9.67839C4.09691 9.75146 4.09469 9.82472 4.09542 9.89797C4.09708 10.1284 4.11917 10.4105 4.15458 10.6955C4.19 10.9796 4.23792 11.2563 4.28792 11.4746C4.30208 11.5376 4.31625 11.5942 4.32958 11.643C4.5678 11.6743 4.79194 11.7736 4.97518 11.929C5.15841 12.0844 5.29298 12.2893 5.36277 12.5192C5.43256 12.7491 5.43461 12.9943 5.36869 13.2253C5.30276 13.4564 5.17164 13.6635 4.99103 13.8219C4.81042 13.9804 4.58798 14.0834 4.35032 14.1187C4.11267 14.154 3.86987 14.1201 3.65101 14.021C3.43214 13.9219 3.24647 13.7618 3.11624 13.5599C2.986 13.358 2.91671 13.1228 2.91667 12.8826Z" fill="white"/>
<path d="M4.58333 12.8826C4.58333 13.1217 4.39083 13.3055 4.16667 13.3055C3.9425 13.3055 3.75 13.1221 3.75 12.8826C3.75 12.6434 3.9425 12.4596 4.16667 12.4596C4.39083 12.4596 4.58333 12.643 4.58333 12.8826Z" fill="white"/>
</svg>
