<svg width="17" height="15" viewBox="0 0 17 15" fill="none" xmlns="http://www.w3.org/2000/svg">
<path d="M9.33333 11V11.8333C9.33333 12.4964 9.06994 13.1323 8.6011 13.6011C8.13226 14.0699 7.49637 14.3333 6.83333 14.3333H3.5C2.83696 14.3333 2.20107 14.0699 1.73223 13.6011C1.26339 13.1323 1 12.4964 1 11.8333V3.5C1 2.83696 1.26339 2.20107 1.73223 1.73223C2.20107 1.26339 2.83696 1 3.5 1H6.83333C7.49637 1 8.13226 1.26339 8.6011 1.73223C9.06994 2.20107 9.33333 2.83696 9.33333 3.5V4.33333M12.6667 11L16 7.66667L12.6667 11ZM16 7.66667L12.6667 4.33333L16 7.66667ZM16 7.66667H4.33333H16Z" stroke="white" stroke-linecap="round" stroke-linejoin="round"/>
</svg>
