<svg width="15" height="16" viewBox="0 0 15 16" fill="none" xmlns="http://www.w3.org/2000/svg">
<path d="M14.4115 12.9574C14.0353 12.0661 13.4892 11.2565 12.8038 10.5737C12.1205 9.88898 11.3111 9.34303 10.4202 8.96603C10.4122 8.96204 10.4042 8.96005 10.3963 8.95606C11.6389 8.05846 12.4468 6.59637 12.4468 4.94678C12.4468 2.21408 10.2327 0 7.5 0C4.76731 0 2.55322 2.21408 2.55322 4.94678C2.55322 6.59637 3.36106 8.05846 4.60374 8.95805C4.59576 8.96204 4.58779 8.96404 4.57981 8.96803C3.6862 9.34502 2.88434 9.88557 2.19618 10.5757C1.51143 11.259 0.965478 12.0685 0.588477 12.9594C0.218111 13.8315 0.0183648 14.7666 4.98787e-05 15.714C-0.000482508 15.7353 0.00325156 15.7565 0.0110322 15.7763C0.0188128 15.7961 0.0304825 15.8142 0.0453536 15.8294C0.0602247 15.8447 0.0779963 15.8568 0.0976214 15.865C0.117246 15.8733 0.138328 15.8776 0.159623 15.8776H1.35642C1.44419 15.8776 1.514 15.8077 1.516 15.722C1.55589 14.1821 2.17424 12.7399 3.26732 11.6469C4.39829 10.5159 5.90028 9.89355 7.5 9.89355C9.09972 9.89355 10.6017 10.5159 11.7327 11.6469C12.8258 12.7399 13.4441 14.1821 13.484 15.722C13.486 15.8097 13.5558 15.8776 13.6436 15.8776H14.8404C14.8617 15.8776 14.8828 15.8733 14.9024 15.865C14.922 15.8568 14.9398 15.8447 14.9546 15.8294C14.9695 15.8142 14.9812 15.7961 14.989 15.7763C14.9967 15.7565 15.0005 15.7353 15 15.714C14.98 14.7605 14.7825 13.833 14.4115 12.9574ZM7.5 8.3776C6.58445 8.3776 5.72275 8.02056 5.07448 7.37229C4.42622 6.72402 4.06917 5.86233 4.06917 4.94678C4.06917 4.03122 4.42622 3.16953 5.07448 2.52126C5.72275 1.87299 6.58445 1.51595 7.5 1.51595C8.41555 1.51595 9.27725 1.87299 9.92552 2.52126C10.5738 3.16953 10.9308 4.03122 10.9308 4.94678C10.9308 5.86233 10.5738 6.72402 9.92552 7.37229C9.27725 8.02056 8.41555 8.3776 7.5 8.3776Z" fill="white"/>
</svg>
