<svg width="17" height="20" viewBox="0 0 17 20" fill="none" xmlns="http://www.w3.org/2000/svg">
<path d="M2.29317 5.76746C2.00667 3.88046 3.33717 2.18546 5.36967 1.56446C5.73035 1.45418 6.11951 1.48557 6.45785 1.65224C6.7962 1.8189 7.05827 2.1083 7.19067 2.46146L7.84317 4.20146C7.94821 4.48138 7.9672 4.7863 7.89771 5.07709C7.82822 5.36788 7.67341 5.63127 7.45317 5.83346L5.51217 7.61096C5.41649 7.69876 5.3452 7.80985 5.30524 7.93341C5.26528 8.05696 5.25802 8.18876 5.28417 8.31596L5.30217 8.39396L5.34867 8.58896C5.59006 9.53643 5.95786 10.4471 6.44217 11.2965C6.96973 12.199 7.62444 13.0209 8.38617 13.737L8.44617 13.791C8.54307 13.877 8.6606 13.9364 8.78731 13.9635C8.91401 13.9906 9.04557 13.9844 9.16917 13.9455L11.6787 13.155C11.9639 13.0654 12.2693 13.0631 12.5558 13.1484C12.8423 13.2336 13.0968 13.4026 13.2867 13.6335L14.4747 15.075C14.9697 15.675 14.9097 16.557 14.3412 17.0865C12.7857 18.537 10.6467 18.834 9.15867 17.6385C7.33471 16.1672 5.7971 14.3728 4.62267 12.345C3.4387 10.3187 2.64786 8.0871 2.29167 5.76746H2.29317ZM6.85767 8.41496L8.46567 6.93896C8.90642 6.53476 9.21632 6.00806 9.35557 5.42647C9.49482 4.84488 9.45707 4.23494 9.24717 3.67496L8.59617 1.93496C8.32968 1.22433 7.80227 0.642049 7.12139 0.306767C6.44051 -0.0285155 5.65742 -0.0915676 4.93167 0.130459C2.40717 0.902959 0.380666 3.16646 0.809666 5.99396C1.10967 7.96796 1.80117 10.479 3.32667 13.101C4.59373 15.2875 6.25235 17.2222 8.21967 18.8085C10.4517 20.601 13.4307 19.989 15.3657 18.186C16.5147 17.115 16.6317 15.336 15.6342 14.124L14.4462 12.681C14.0661 12.2197 13.557 11.8824 12.984 11.7125C12.411 11.5425 11.8003 11.5475 11.2302 11.727L9.14667 12.3825C8.60872 11.8278 8.13752 11.2121 7.74267 10.548C7.36125 9.8765 7.06401 9.16061 6.85767 8.41646V8.41496Z" fill="#4EAF48"/>
</svg>
