<svg width="21" height="17" viewBox="0 0 21 17" fill="none" xmlns="http://www.w3.org/2000/svg">
<path d="M20.4444 3.48658C20.4463 3.23528 20.378 2.98845 20.247 2.77395C20.116 2.55946 19.9277 2.38584 19.7033 2.27269C19.4906 2.15847 19.2499 2.10685 19.0091 2.12381C18.7682 2.14077 18.5371 2.22562 18.3425 2.36853L15.3333 4.29158V1.99158C15.3333 1.6527 15.1987 1.32769 14.9591 1.08806C14.7195 0.848429 14.3944 0.713806 14.0556 0.713806H2.55556C1.87778 0.713806 1.22776 0.983051 0.748505 1.46231C0.269245 1.94157 0 2.59159 0 3.26936V13.4916C0 14.1694 0.269245 14.8194 0.748505 15.2986C1.22776 15.7779 1.87778 16.0471 2.55556 16.0471H14.0556C14.3944 16.0471 14.7195 15.9125 14.9591 15.6729C15.1987 15.4333 15.3333 15.1082 15.3333 14.7694V12.4694L18.2978 14.386C18.4961 14.5379 18.7333 14.6305 18.9821 14.6531C19.2308 14.6757 19.4809 14.6274 19.7033 14.5138C19.9317 14.3988 20.1226 14.2212 20.2539 14.0017C20.3851 13.7822 20.4512 13.53 20.4444 13.2744V3.48658ZM19.1219 13.3446C19.0836 13.3446 19.0517 13.3446 19.0006 13.3063L14.0556 10.1502V14.7694H2.55556C2.21667 14.7694 1.89166 14.6347 1.65203 14.3951C1.4124 14.1555 1.27778 13.8305 1.27778 13.4916V3.26936C1.27778 2.93047 1.4124 2.60547 1.65203 2.36584C1.89166 2.12621 2.21667 1.99158 2.55556 1.99158H14.0556V6.61075L19.0389 3.41631C19.0509 3.40748 19.0655 3.40272 19.0804 3.40272C19.0954 3.40272 19.1099 3.40748 19.1219 3.41631C19.1359 3.42172 19.1478 3.43146 19.1558 3.4441C19.1639 3.45675 19.1677 3.47163 19.1667 3.48658V13.2744C19.1677 13.2893 19.1639 13.3042 19.1558 13.3168C19.1478 13.3295 19.1359 13.3392 19.1219 13.3446Z" fill="#4EAF48"/>
</svg>
