<svg width="18" height="22" viewBox="0 0 18 22" fill="none" xmlns="http://www.w3.org/2000/svg">
<path d="M9.72135 4.00302L8.25535 4.00002C4.91135 3.99202 2.00835 6.70902 1.98535 10V13.79C1.98535 14.58 1.88535 15.351 1.45435 16.008L1.16735 16.446C0.730354 17.11 1.20035 18 1.98535 18H16.0154C16.8004 18 17.2694 17.11 16.8334 16.446L16.5464 16.008C16.1164 15.351 16.0154 14.579 16.0154 13.789V10.001C15.9754 6.70902 13.0654 4.01102 9.72135 4.00302V4.00302Z" stroke="#132C12" stroke-width="2" stroke-linecap="round" stroke-linejoin="round"/>
<path d="M12.0004 18C12.0004 18.7956 11.6843 19.5587 11.1217 20.1213C10.5591 20.6839 9.796 21 9.00035 21C8.2047 21 7.44164 20.6839 6.87903 20.1213C6.31642 19.5587 6.00035 18.7956 6.00035 18" stroke="#132C12" stroke-width="2" stroke-linecap="round" stroke-linejoin="round"/>
<path d="M9.00035 1C9.53078 1 10.0395 1.21071 10.4146 1.58579C10.7896 1.96086 11.0004 2.46957 11.0004 3V4H7.00035V3C7.00035 2.46957 7.21107 1.96086 7.58614 1.58579C7.96121 1.21071 8.46992 1 9.00035 1Z" stroke="#132C12" stroke-width="2" stroke-linecap="round" stroke-linejoin="round"/>
</svg>
