<svg width="19" height="21" viewBox="0 0 19 21" fill="none" xmlns="http://www.w3.org/2000/svg">
<path d="M10.5878 0.432792C10.2938 0.15486 9.90456 0 9.5 0C9.09544 0 8.70623 0.15486 8.41225 0.432792L0.742585 7.68129C0.507747 7.90352 0.320755 8.17135 0.193066 8.46838C0.0653775 8.76542 -0.000319156 9.08539 1.16573e-06 9.40871V18.2279C0.000420909 18.8575 0.250829 19.4612 0.696182 19.9062C1.14154 20.3513 1.74539 20.6013 2.375 20.6013H4.75C5.37989 20.6013 5.98398 20.3511 6.42938 19.9057C6.87478 19.4603 7.125 18.8562 7.125 18.2263V14.268C7.125 14.058 7.20841 13.8566 7.35687 13.7082C7.50534 13.5597 7.7067 13.4763 7.91667 13.4763H11.0833C11.2933 13.4763 11.4947 13.5597 11.6431 13.7082C11.7916 13.8566 11.875 14.058 11.875 14.268V18.2263C11.875 18.8562 12.1252 19.4603 12.5706 19.9057C13.016 20.3511 13.6201 20.6013 14.25 20.6013H16.625C17.2549 20.6013 17.859 20.3511 18.3044 19.9057C18.7498 19.4603 19 18.8562 19 18.2263V9.40712C18.9999 9.08396 18.9339 8.76422 18.8059 8.46747C18.6779 8.17071 18.4908 7.9032 18.2558 7.68129L10.5878 0.429626V0.432792Z" fill="white"/>
</svg>
