<svg width="39" height="38" viewBox="0 0 39 38" fill="none" xmlns="http://www.w3.org/2000/svg">
<path d="M3.89994 37.0221H22.6586C23.7839 37.0227 24.896 36.7795 25.9183 36.3092C26.9406 35.839 27.8489 35.1528 28.5807 34.298L38.5294 22.6918C38.7378 22.4492 38.8832 22.159 38.953 21.847C39.0228 21.5349 39.0148 21.2105 38.9296 20.9022C38.8444 20.594 38.6848 20.3114 38.4647 20.0794C38.2446 19.8474 37.9709 19.6731 37.6675 19.5718L33.83 18.2927C32.9025 17.9912 31.915 17.923 30.9548 18.094C29.9947 18.2651 29.0915 18.6702 28.3252 19.2735L22.1146 24.2401L20.9115 21.8318C20.2669 20.5337 19.2717 19.442 18.0386 18.6804C16.8055 17.9187 15.3838 17.5176 13.9345 17.5224H3.89994C1.74912 17.5224 0 19.2715 0 21.4224V33.1222C0 35.273 1.74912 37.0221 3.89994 37.0221ZM3.89994 21.4224H13.9345C15.4223 21.4224 16.758 22.2472 17.423 23.5771L18.2946 25.3223H9.74984V29.2222H21.477C21.777 29.2183 22.072 29.1448 22.3388 29.0077L22.3447 29.0058L22.3525 29.0019H22.3583L22.3622 28.9999H22.37L22.372 28.998C22.3934 29.0038 22.3778 28.996 22.3778 28.996C22.4012 28.996 22.3817 28.9941 22.3817 28.9941H22.3837L22.3876 28.9921L22.3934 28.9902L22.3973 28.9882L22.4012 28.9863L22.4071 28.9843L22.411 28.9824L22.4149 28.9804L22.4207 28.9765L22.4246 28.9746L22.4285 28.9726L22.4344 28.9707L22.4383 28.9687H22.4402L22.4441 28.9668H22.4461L22.45 28.9648L22.4539 28.9629C22.4753 28.9609 22.4597 28.9609 22.4597 28.9609L22.4636 28.959C22.5388 28.9136 22.6105 28.8628 22.6781 28.8069L30.7627 22.3388C30.7627 22.3388 31.9775 21.8065 32.5957 22.0132L33.6818 22.3759L25.6226 31.7806C25.2519 32.2015 24.7959 32.5388 24.2849 32.7701C23.7739 33.0014 23.2195 33.1214 22.6586 33.1222H3.89994V21.4224ZM22.9336 0.60839C22.0346 1.59507 17.5497 6.71374 17.5497 10.6975C17.5497 14.461 20.6112 17.5224 24.3746 17.5224C28.138 17.5224 31.1995 14.461 31.1995 10.6975C31.1995 6.71374 26.7146 1.59507 25.8156 0.60839C25.0766 -0.202797 23.6726 -0.202797 22.9336 0.60839ZM27.2996 10.6975C27.2996 12.3102 25.9872 13.6225 24.3746 13.6225C22.762 13.6225 21.4497 12.3102 21.4497 10.6975C21.4497 9.31695 22.8887 6.92629 24.3746 4.97632C25.8605 6.92629 27.2996 9.31695 27.2996 10.6975Z" fill="white"/>
</svg>
