<svg width="45" height="45" viewBox="0 0 39 35" fill="none" xmlns="http://www.w3.org/2000/svg">
<path d="M18.3982 3.0865C16.6748 1.35844 14.4034 0.284445 11.9742 0.0490062C9.54498 -0.186433 7.1096 0.431377 5.08638 1.79631C3.06316 3.16125 1.57838 5.18812 0.887085 7.52876C0.195793 9.8694 0.341136 12.3777 1.29815 14.6228H8.29208L11.2336 9.47478C11.5426 8.93385 11.9926 8.48693 12.5356 8.18169C13.0786 7.87646 13.6943 7.72434 14.317 7.74158C14.9397 7.75882 15.5461 7.94476 16.0714 8.27958C16.5967 8.61439 17.0213 9.08552 17.2998 9.64271L20.273 15.5919L22.4506 12.5994C22.7277 12.2186 23.0799 11.8986 23.4856 11.6594C23.8913 11.4202 24.3418 11.2669 24.8091 11.2088C25.2765 11.1507 25.7508 11.1892 26.2027 11.3219C26.6546 11.4545 27.0744 11.6785 27.4363 11.98L30.6091 14.6228H38.2499C39.1428 12.3583 39.2287 9.8553 38.4931 7.53486C37.7575 5.21443 36.2452 3.21809 34.2107 1.88156C32.1762 0.545033 29.7435 -0.0501441 27.3218 0.196122C24.9 0.442389 22.6369 1.51508 20.9131 3.23379L19.7293 4.41756L18.3996 3.0865H18.3982Z" fill="white"/>
<path d="M18.7241 34.147L6.87534 21.5053H10.2904C10.897 21.5051 11.4927 21.3446 12.0172 21.04C12.5418 20.7354 12.9765 20.2976 13.2774 19.7709L14.0207 18.4715L16.6498 23.7325C16.914 24.2612 17.3099 24.713 17.7994 25.0443C18.289 25.3756 18.8556 25.5752 19.4447 25.6239C20.0338 25.6726 20.6255 25.5687 21.1628 25.3223C21.7001 25.0759 22.1648 24.6952 22.5122 24.217L25.8571 19.6195L27.1606 20.7069C27.7792 21.2227 28.559 21.5053 29.3644 21.5053H32.7616L20.7255 34.1552C20.5963 34.2909 20.4408 34.3988 20.2684 34.4723C20.096 34.5457 19.9104 34.5832 19.7231 34.5824C19.5357 34.5817 19.3504 34.5426 19.1787 34.4678C19.0069 34.3929 18.8522 34.2837 18.7241 34.147Z" fill="white"/>
<path d="M15.4538 10.5663C15.3436 10.3456 15.1761 10.1586 14.9689 10.0248C14.7616 9.89102 14.5222 9.81538 14.2757 9.80581C14.0292 9.79625 13.7847 9.8531 13.5677 9.97042C13.3507 10.0877 13.1692 10.2612 13.0422 10.4727L9.31469 16.6876H1.37649C1.01142 16.6876 0.661305 16.8326 0.403164 17.0907C0.145022 17.3489 0 17.699 0 18.064C0 18.4291 0.145022 18.7792 0.403164 19.0374C0.661305 19.2955 1.01142 19.4405 1.37649 19.4405H10.0938C10.3313 19.4405 10.5648 19.379 10.7715 19.262C10.9782 19.145 11.1511 18.9765 11.2734 18.7729L14.1131 14.0392L18.4986 22.8088C18.6043 23.0201 18.7626 23.2007 18.9584 23.3331C19.1541 23.4656 19.3806 23.5454 19.6161 23.5649C19.8516 23.5844 20.0882 23.5429 20.303 23.4445C20.5179 23.346 20.7037 23.194 20.8428 23.0029L25.4829 16.6215L28.4836 19.1212C28.7309 19.3274 29.0426 19.4404 29.3646 19.4405H37.6235C37.9886 19.4405 38.3387 19.2955 38.5968 19.0374C38.855 18.7792 39 18.4291 39 18.064C39 17.699 38.855 17.3489 38.5968 17.0907C38.3387 16.8326 37.9886 16.6876 37.6235 16.6876H29.8629L26.1161 13.5657C25.9713 13.4451 25.8034 13.3554 25.6226 13.3023C25.4418 13.2492 25.2521 13.2338 25.0651 13.2571C24.8781 13.2803 24.6979 13.3417 24.5356 13.4374C24.3733 13.5331 24.2324 13.6611 24.1216 13.8135L19.948 19.5534L15.4538 10.5649V10.5663Z" fill="white"/>
</svg>
