<svg width="40" height="38" viewBox="0 0 40 38" fill="none" xmlns="http://www.w3.org/2000/svg">
<path d="M4.25 0C3.12283 0 2.04183 0.447767 1.2448 1.2448C0.447767 2.04183 0 3.12283 0 4.25V13.298C0.0832097 13.2923 0.166597 13.2897 0.25 13.29H2.5V4.25C2.5 3.284 3.284 2.5 4.25 2.5H35.75C36.717 2.5 37.5 3.284 37.5 4.25V13.29H39.75C39.834 13.29 39.917 13.292 40 13.298V4.25C40 3.12283 39.5522 2.04183 38.7552 1.2448C37.9582 0.447767 36.8772 0 35.75 0H4.25ZM0 27.75V20.781C0.083 20.787 0.166 20.79 0.25 20.79H2.5V27.75C2.5 28.717 3.284 29.5 4.25 29.5H35.75C36.2141 29.5 36.6592 29.3156 36.9874 28.9874C37.3156 28.6592 37.5 28.2141 37.5 27.75V20.79H39.75C39.834 20.79 39.917 20.787 40 20.781V27.75C40 28.8772 39.5522 29.9582 38.7552 30.7552C37.9582 31.5522 36.8772 32 35.75 32H27V35.5H29.75C30.0815 35.5 30.3995 35.6317 30.6339 35.8661C30.8683 36.1005 31 36.4185 31 36.75C31 37.0815 30.8683 37.3995 30.6339 37.6339C30.3995 37.8683 30.0815 38 29.75 38H10.25C9.91848 38 9.60054 37.8683 9.36612 37.6339C9.1317 37.3995 9 37.0815 9 36.75C9 36.4185 9.1317 36.1005 9.36612 35.8661C9.60054 35.6317 9.91848 35.5 10.25 35.5H13V32H4.25C3.12283 32 2.04183 31.5522 1.2448 30.7552C0.447767 29.9582 0 28.8772 0 27.75V27.75ZM24.5 32H15.5V35.5H24.5V32ZM14.94 5.868C14.86 5.61937 14.7042 5.40204 14.4944 5.24653C14.2845 5.09101 14.0313 5.00513 13.7701 5.00094C13.509 4.99675 13.2531 5.07446 13.0384 5.22315C12.8237 5.37185 12.6609 5.58407 12.573 5.83L8.943 16H1.25C0.918479 16 0.600537 16.1317 0.366117 16.3661C0.131696 16.6005 0 16.9185 0 17.25C0 17.5815 0.131696 17.8995 0.366117 18.1339C0.600537 18.3683 0.918479 18.5 1.25 18.5H9.824C10.352 18.5 10.824 18.168 11.001 17.67L13.686 10.147L18.81 26.13C18.8866 26.3694 19.0336 26.5801 19.2318 26.7346C19.43 26.8892 19.6702 26.9804 19.921 26.9964C20.1718 27.0124 20.4217 26.9524 20.6379 26.8242C20.8541 26.6961 21.0266 26.5057 21.133 26.278L26.943 13.828L28.591 17.735C28.787 18.198 29.241 18.499 29.743 18.499H38.75C39.0815 18.499 39.3995 18.3673 39.6339 18.1329C39.8683 17.8985 40 17.5805 40 17.249C40 16.9175 39.8683 16.5995 39.6339 16.3651C39.3995 16.1307 39.0815 15.999 38.75 15.999H30.572L28.152 10.263C28.0581 10.04 27.9015 9.84902 27.7012 9.71329C27.5008 9.57755 27.2654 9.50287 27.0235 9.49832C26.7815 9.49377 26.5435 9.55953 26.3382 9.68764C26.1329 9.81574 25.9692 10.0007 25.867 10.22L20.217 22.33L14.94 5.867V5.868Z" fill="white"/>
</svg>
