<svg width="45" height="45" viewBox="0 0 39 40" fill="none" xmlns="http://www.w3.org/2000/svg">
<path fill-rule="evenodd" clip-rule="evenodd" d="M32.503 11.2469C33.3171 12.1455 33.068 13.5248 32.075 14.2204L26.7292 17.9708C25.7373 18.6665 24.3811 18.3856 23.4013 17.6746C22.2984 16.8714 20.9744 16.4285 19.6102 16.4061C18.2461 16.3837 16.9082 16.7821 15.7786 17.5473C14.7747 18.2265 13.4108 18.4624 12.443 17.7338L7.22337 13.8079C6.25559 13.0793 6.0515 11.6913 6.89529 10.8211C8.5662 9.09795 10.5727 7.73571 12.7908 6.81857C15.009 5.90143 17.3916 5.44888 19.7916 5.48889C22.1915 5.52889 24.5577 6.06059 26.7441 7.05114C28.9304 8.0417 30.8904 9.47005 32.503 11.248V11.2469ZM30.687 12.5153C29.2802 11.0202 27.588 9.82223 25.7103 8.99221C23.8327 8.16219 21.8077 7.71694 19.7551 7.68278C17.7025 7.64862 15.6638 8.02623 13.7596 8.7933C11.8554 9.56038 10.1242 10.7014 8.66845 12.1488L13.7575 15.976C13.8042 15.9871 13.8526 15.9893 13.9001 15.9826C14.0724 15.9672 14.3138 15.8882 14.5475 15.7302C16.0981 14.6797 17.9426 14.1495 19.8143 14.216C19.856 14.1282 19.9109 14.0449 19.9778 13.9681L22.9909 10.5029C23.1818 10.2832 23.4522 10.1483 23.7425 10.128C24.0328 10.1076 24.3194 10.2034 24.5391 10.3943C24.7588 10.5852 24.8937 10.8556 24.9141 11.1459C24.9344 11.4363 24.8386 11.7228 24.6477 11.9425L22.2832 14.6615C23.1448 14.9474 23.9572 15.3645 24.6916 15.8981C24.9199 16.0638 25.158 16.1505 25.3302 16.1724C25.4136 16.1834 25.4575 16.1757 25.4729 16.1713L30.687 12.5153ZM25.4827 16.168L25.474 16.1713C25.4784 16.168 25.4816 16.1669 25.4827 16.168ZM13.7487 15.9727C13.7487 15.9727 13.752 15.9727 13.7575 15.976L13.7487 15.9727Z" fill="white"/>
<path fill-rule="evenodd" clip-rule="evenodd" d="M32.9035 39.5011C34.0254 39.5011 35.1047 39.0716 35.9197 38.3006C36.7348 37.5296 37.2236 36.4758 37.2859 35.3557L38.9932 4.6326C39.0264 4.03662 38.9376 3.44014 38.7323 2.87965C38.527 2.31915 38.2096 1.80642 37.7994 1.3728C37.3892 0.939177 36.8948 0.593787 36.3466 0.357746C35.7983 0.121705 35.2077 -2.4656e-05 34.6108 3.74588e-09H4.38809C3.79128 0.00012455 3.20077 0.121964 2.65265 0.358071C2.10453 0.594178 1.61032 0.939592 1.20024 1.3732C0.790152 1.8068 0.472807 2.31948 0.267602 2.8799C0.0623964 3.44032 -0.0263578 4.03671 0.00676512 4.6326L1.71299 35.3557C1.77526 36.4758 2.26412 37.5296 3.07916 38.3006C3.89419 39.0716 4.97352 39.5011 6.09542 39.5011H32.9035ZM6.09542 37.3066H32.9035C33.4646 37.3066 34.0044 37.0916 34.412 36.7059C34.8195 36.3202 35.0638 35.793 35.0947 35.2328L36.802 4.50971C36.8184 4.2118 36.7739 3.91369 36.6712 3.63357C36.5685 3.35345 36.4098 3.09722 36.2047 2.88053C35.9996 2.66384 35.7525 2.49124 35.4784 2.37329C35.2044 2.25533 34.9092 2.1945 34.6108 2.1945H4.38809C4.08974 2.1945 3.79452 2.25533 3.52047 2.37329C3.24643 2.49124 2.99931 2.66384 2.79422 2.88053C2.58914 3.09722 2.43039 3.35345 2.32769 3.63357C2.22498 3.91369 2.18047 4.2118 2.19688 4.50971L3.9042 35.2328C3.93507 35.793 4.17938 36.3202 4.58693 36.7059C4.99447 37.0916 5.53429 37.3066 6.09542 37.3066Z" fill="white"/>
</svg>
