<svg width="15" height="15" viewBox="0 0 15 15" fill="none" xmlns="http://www.w3.org/2000/svg">
<path d="M7.91669 6.45833L7.29169 8.54166L7.91669 9.37499L8.54169 8.54166L7.91669 6.45833Z" fill="white"/>
<path fill-rule="evenodd" clip-rule="evenodd" d="M11.6671 4.84708C11.2855 4.65622 10.9221 4.43113 10.5813 4.17458C9.93833 3.68583 9.16667 2.895 9.16667 1.85333C9.16667 0.925417 9.86833 0 10.9117 0C11.3958 0 11.7875 0.193333 12.0833 0.482083C12.3787 0.193333 12.7708 0 13.2554 0C14.2983 0 15 0.92625 15 1.85333C15 2.86292 14.2246 3.65458 13.5879 4.14625C13.246 4.40852 12.8822 4.6409 12.5004 4.84083C12.5029 5.5675 12.5146 6.26125 12.5254 6.91792C12.5504 8.3575 12.5713 9.61958 12.4842 10.6617C12.3517 12.24 11.9604 13.5067 10.7904 14.1921C9.64 14.8658 7.94 15.1192 6.53208 14.9479C5.82542 14.8621 5.15083 14.6646 4.64042 14.3237C4.26917 14.0758 3.97458 13.7421 3.83625 13.3238C2.97083 13.2842 2.11 13.1263 1.42917 12.8438C0.69375 12.5387 0 12.0104 0 11.1833V2.9675H0.00124991C0.000429052 2.95057 1.23577e-05 2.93362 0 2.91667C0 1.76625 1.86542 0.833333 4.16667 0.833333C6.46792 0.833333 8.33333 1.76625 8.33333 2.91667C8.33333 2.93333 8.33292 2.95083 8.33208 2.9675H8.33333V5.44625C9.02747 5.54663 9.66221 5.89374 10.1213 6.424C10.5803 6.95425 10.833 7.63215 10.8329 8.33351C10.8329 9.03487 10.5801 9.71274 10.121 10.2429C9.66186 10.7731 9.02707 11.1201 8.33292 11.2204C8.31375 12.06 7.6425 12.5913 6.90208 12.8929C6.28958 13.1421 5.53542 13.2796 4.76458 13.3204C4.84792 13.4321 4.96042 13.5354 5.10375 13.6308C5.46625 13.8733 5.99958 14.0437 6.63292 14.1208C7.90417 14.2754 9.41083 14.0342 10.3696 13.4729C11.1658 13.0062 11.5258 12.1167 11.6538 10.5921C11.7375 9.59125 11.7171 8.39958 11.6933 6.99292C11.6794 6.27771 11.6707 5.56241 11.6671 4.84708ZM10.9117 0.833333C10.4192 0.833333 10 1.29 10 1.85333C10 2.47625 10.4783 3.05 11.0854 3.51042C11.3967 3.74467 11.7292 3.94918 12.0787 4.12125C12.4302 3.93986 12.7648 3.72763 13.0787 3.48708C13.6921 3.01292 14.1667 2.43958 14.1667 1.85375C14.1667 1.28958 13.7475 0.833333 13.255 0.833333C12.9121 0.833333 12.6388 1.02417 12.4475 1.36875L12.0833 2.02583L11.7192 1.36875C11.5275 1.02417 11.2542 0.833333 10.9117 0.833333ZM4.16667 5C5.52958 5 6.73958 4.67292 7.5 4.16667V5.44583C6.80553 5.5457 6.17032 5.89252 5.71081 6.42272C5.2513 6.95292 4.99828 7.63097 4.99813 8.33258C4.99798 9.0342 5.25071 9.71236 5.70999 10.2428C6.16927 10.7732 6.80432 11.1202 7.49875 11.2204C7.48042 11.5446 7.21833 11.8642 6.58792 12.1208C5.9525 12.3796 5.07458 12.5096 4.17125 12.4996C4.04339 12.4981 3.91558 12.4938 3.78792 12.4867V4.99167C3.91292 4.99708 4.03917 5 4.16667 5ZM7.5 2.91667C7.5 3.00625 7.40583 3.31167 6.74042 3.64458C6.12458 3.95208 5.21583 4.16667 4.16667 4.16667C3.1175 4.16667 2.20833 3.95208 1.59292 3.64458C0.9275 3.31167 0.833333 3.00625 0.833333 2.91667C0.833333 2.82708 0.9275 2.52167 1.59292 2.18875C2.20875 1.88125 3.1175 1.66667 4.16667 1.66667C5.21583 1.66667 6.125 1.88125 6.74042 2.18875C7.40583 2.52167 7.5 2.82708 7.5 2.91667ZM7.91667 10.4167C8.4692 10.4167 8.9991 10.1972 9.38981 9.80647C9.78051 9.41577 10 8.88587 10 8.33333C10 7.7808 9.78051 7.2509 9.38981 6.86019C8.9991 6.46949 8.4692 6.25 7.91667 6.25C7.36413 6.25 6.83423 6.46949 6.44353 6.86019C6.05283 7.2509 5.83333 7.7808 5.83333 8.33333C5.83333 8.88587 6.05283 9.41577 6.44353 9.80647C6.83423 10.1972 7.36413 10.4167 7.91667 10.4167Z" fill="white"/>
</svg>
