<svg width="15" height="16" viewBox="0 0 15 16" fill="none" xmlns="http://www.w3.org/2000/svg">
<path d="M14.8019 9.93601L13.6436 8.94568C13.6984 8.60968 13.7267 8.2666 13.7267 7.92352C13.7267 7.58044 13.6984 7.23737 13.6436 6.90136L14.8019 5.91103C14.8893 5.83624 14.9518 5.73662 14.9812 5.62542C15.0106 5.51423 15.0054 5.39673 14.9664 5.28854L14.9505 5.24256C14.6316 4.35131 14.1541 3.52511 13.541 2.80387L13.5092 2.76673C13.4348 2.67929 13.3357 2.61643 13.2249 2.58644C13.1141 2.55645 12.9968 2.56073 12.8885 2.59873L11.4507 3.10981C10.9202 2.67477 10.3278 2.3317 9.68757 2.09119L9.40993 0.588008C9.38898 0.474902 9.33411 0.370847 9.25262 0.289668C9.17112 0.208488 9.06685 0.154026 8.95367 0.133518L8.90592 0.124675C7.98456 -0.0415585 7.01544 -0.0415585 6.09408 0.124675L6.04633 0.133518C5.93315 0.154026 5.82888 0.208488 5.74738 0.289668C5.66589 0.370847 5.61102 0.474902 5.59007 0.588008L5.31066 2.09826C4.67559 2.33882 4.08418 2.68172 3.55989 3.11335L2.11153 2.59873C2.00324 2.56043 1.88586 2.55599 1.77499 2.586C1.66411 2.61601 1.565 2.67904 1.49081 2.76673L1.45897 2.80387C0.846643 3.52562 0.369213 4.35168 0.0495202 5.24256L0.0336041 5.28854C-0.0459761 5.50959 0.0194566 5.75718 0.19807 5.91103L1.37055 6.91197C1.31573 7.24444 1.2892 7.58398 1.2892 7.92175C1.2892 8.2613 1.31573 8.60084 1.37055 8.93154L0.19807 9.93248C0.110701 10.0073 0.0481699 10.1069 0.0187916 10.2181C-0.0105868 10.3293 -0.0054203 10.4468 0.0336041 10.555L0.0495202 10.6009C0.36961 11.4922 0.843554 12.3146 1.45897 13.0396L1.49081 13.0768C1.56518 13.1642 1.6643 13.2271 1.77511 13.2571C1.88592 13.2871 2.00321 13.2828 2.11153 13.2448L3.55989 12.7302C4.08689 13.1634 4.67579 13.5065 5.31066 13.7452L5.59007 15.2555C5.61102 15.3686 5.66589 15.4727 5.74738 15.5538C5.82888 15.635 5.93315 15.6895 6.04633 15.71L6.09408 15.7188C7.02391 15.886 7.97609 15.886 8.90592 15.7188L8.95367 15.71C9.06685 15.6895 9.17112 15.635 9.25262 15.5538C9.33411 15.4727 9.38898 15.3686 9.40993 15.2555L9.68757 13.7523C10.3275 13.5124 10.9233 13.1682 11.4507 12.7337L12.8885 13.2448C12.9968 13.2831 13.1141 13.2875 13.225 13.2575C13.3359 13.2275 13.435 13.1645 13.5092 13.0768L13.541 13.0396C14.1564 12.3128 14.6304 11.4922 14.9505 10.6009L14.9664 10.555C15.046 10.3375 14.9805 10.0899 14.8019 9.93601ZM12.388 7.11004C12.4322 7.37707 12.4552 7.65118 12.4552 7.92529C12.4552 8.1994 12.4322 8.47351 12.388 8.74054L12.2713 9.44969L13.5923 10.5797C13.392 11.0411 13.1393 11.4778 12.839 11.8813L11.1978 11.2995L10.6425 11.7557C10.2199 12.1024 9.74947 12.3747 9.24016 12.5657L8.56638 12.8186L8.24982 14.534C7.75036 14.5906 7.2461 14.5906 6.74664 14.534L6.43009 12.815L5.76161 12.5586C5.25761 12.3676 4.78897 12.0953 4.36984 11.7504L3.81455 11.2924L2.16282 11.8795C1.86218 11.4746 1.61106 11.0378 1.40946 10.578L2.74464 9.43731L2.62969 8.72993C2.58725 8.46644 2.56426 8.19409 2.56426 7.92529C2.56426 7.65472 2.58548 7.38415 2.62969 7.12065L2.74464 6.41327L1.40946 5.27262C1.60929 4.81106 1.86218 4.37602 2.16282 3.97105L3.81455 4.55817L4.36984 4.10014C4.78897 3.7553 5.25761 3.48295 5.76161 3.29196L6.43186 3.03907L6.74841 1.32014C7.24534 1.26355 7.75289 1.26355 8.25159 1.32014L8.56814 3.03554L9.24192 3.28843C9.74947 3.47942 10.2216 3.75176 10.6443 4.09837L11.1996 4.55463L12.8407 3.97281C13.1414 4.37779 13.3925 4.81459 13.5941 5.27439L12.273 6.40443L12.388 7.11004ZM7.50177 4.63598C5.78284 4.63598 4.3893 6.02952 4.3893 7.74845C4.3893 9.46738 5.78284 10.8609 7.50177 10.8609C9.2207 10.8609 10.6142 9.46738 10.6142 7.74845C10.6142 6.02952 9.2207 4.63598 7.50177 4.63598ZM8.90238 9.14906C8.71868 9.33329 8.50036 9.47938 8.25999 9.57893C8.01962 9.67847 7.76194 9.72951 7.50177 9.72911C6.973 9.72911 6.47607 9.5222 6.10116 9.14906C5.91692 8.96535 5.77083 8.74704 5.67129 8.50667C5.57174 8.2663 5.5207 8.00861 5.5211 7.74845C5.5211 7.21968 5.72801 6.72275 6.10116 6.34784C6.47607 5.97293 6.973 5.76779 7.50177 5.76779C8.03053 5.76779 8.52747 5.97293 8.90238 6.34784C9.08661 6.53154 9.2327 6.74986 9.33225 6.99023C9.4318 7.2306 9.48284 7.48828 9.48243 7.74845C9.48243 8.27721 9.27552 8.77415 8.90238 9.14906Z" fill="white"/>
</svg>
