<svg width="17" height="17" viewBox="0 0 17 17" fill="none" xmlns="http://www.w3.org/2000/svg">
<path d="M7.27001 14.5392C8.88302 14.5389 10.4495 13.9989 11.7202 13.0053L15.715 17L17 15.7151L13.0051 11.7204C13.9993 10.4498 14.5396 8.88296 14.54 7.26962C14.54 3.26133 11.2785 0 7.27001 0C3.26151 0 0 3.26133 0 7.26962C0 11.2779 3.26151 14.5392 7.27001 14.5392ZM7.27001 1.8174C10.2771 1.8174 12.7225 4.26272 12.7225 7.26962C12.7225 10.2765 10.2771 12.7218 7.27001 12.7218C4.26295 12.7218 1.8175 10.2765 1.8175 7.26962C1.8175 4.26272 4.26295 1.8174 7.27001 1.8174Z" fill="black"/>
<path d="M8.72517 5.92933C9.0583 6.21706 9.24201 6.59717 9.24201 7H11C11.0008 6.60204 10.91 6.20789 10.7328 5.84035C10.5557 5.4728 10.2958 5.13914 9.96806 4.85866C8.63727 3.71378 6.32991 3.71378 5 4.85866L6.24114 5.93084C6.90917 5.35689 8.06065 5.35841 8.72517 5.92933Z" fill="black"/>
</svg>
