<svg width="16" height="14" viewBox="0 0 16 14" fill="none" xmlns="http://www.w3.org/2000/svg">
<path d="M0 2.5C0 1.83696 0.263392 1.20107 0.732233 0.732233C1.20107 0.263392 1.83696 0 2.5 0H3.5C3.63261 0 3.75979 0.0526785 3.85355 0.146447C3.94732 0.240215 4 0.367392 4 0.5C4 0.632608 3.94732 0.759785 3.85355 0.853553C3.75979 0.947321 3.63261 1 3.5 1H2.5C2.10218 1 1.72064 1.15804 1.43934 1.43934C1.15804 1.72064 1 2.10218 1 2.5V3.5C1 3.63261 0.947321 3.75979 0.853553 3.85355C0.759785 3.94732 0.632608 4 0.5 4C0.367392 4 0.240215 3.94732 0.146447 3.85355C0.0526785 3.75979 0 3.63261 0 3.5V2.5ZM12 0.5C12 0.367392 12.0527 0.240215 12.1464 0.146447C12.2402 0.0526785 12.3674 0 12.5 0H13.5C14.163 0 14.7989 0.263392 15.2678 0.732233C15.7366 1.20107 16 1.83696 16 2.5V3.5C16 3.63261 15.9473 3.75979 15.8536 3.85355C15.7598 3.94732 15.6326 4 15.5 4C15.3674 4 15.2402 3.94732 15.1464 3.85355C15.0527 3.75979 15 3.63261 15 3.5V2.5C15 2.10218 14.842 1.72064 14.5607 1.43934C14.2794 1.15804 13.8978 1 13.5 1H12.5C12.3674 1 12.2402 0.947321 12.1464 0.853553C12.0527 0.759785 12 0.632608 12 0.5ZM0.5 10C0.632608 10 0.759785 10.0527 0.853553 10.1464C0.947321 10.2402 1 10.3674 1 10.5V11.5C1 11.8978 1.15804 12.2794 1.43934 12.5607C1.72064 12.842 2.10218 13 2.5 13H3.5C3.63261 13 3.75979 13.0527 3.85355 13.1464C3.94732 13.2402 4 13.3674 4 13.5C4 13.6326 3.94732 13.7598 3.85355 13.8536C3.75979 13.9473 3.63261 14 3.5 14H2.5C1.83696 14 1.20107 13.7366 0.732233 13.2678C0.263392 12.7989 0 12.163 0 11.5V10.5C0 10.3674 0.0526785 10.2402 0.146447 10.1464C0.240215 10.0527 0.367392 10 0.5 10ZM15.5 10C15.6326 10 15.7598 10.0527 15.8536 10.1464C15.9473 10.2402 16 10.3674 16 10.5V11.5C16 12.163 15.7366 12.7989 15.2678 13.2678C14.7989 13.7366 14.163 14 13.5 14H12.5C12.3674 14 12.2402 13.9473 12.1464 13.8536C12.0527 13.7598 12 13.6326 12 13.5C12 13.3674 12.0527 13.2402 12.1464 13.1464C12.2402 13.0527 12.3674 13 12.5 13H13.5C13.8978 13 14.2794 12.842 14.5607 12.5607C14.842 12.2794 15 11.8978 15 11.5V10.5C15 10.3674 15.0527 10.2402 15.1464 10.1464C15.2402 10.0527 15.3674 10 15.5 10ZM3.5 3C3.63261 3 3.75979 3.05268 3.85355 3.14645C3.94732 3.24021 4 3.36739 4 3.5V10.5C4 10.6326 3.94732 10.7598 3.85355 10.8536C3.75979 10.9473 3.63261 11 3.5 11C3.36739 11 3.24021 10.9473 3.14645 10.8536C3.05268 10.7598 3 10.6326 3 10.5V3.5C3 3.36739 3.05268 3.24021 3.14645 3.14645C3.24021 3.05268 3.36739 3 3.5 3V3ZM7 3.5C7 3.36739 6.94732 3.24021 6.85355 3.14645C6.75979 3.05268 6.63261 3 6.5 3C6.36739 3 6.24021 3.05268 6.14645 3.14645C6.05268 3.24021 6 3.36739 6 3.5V10.5C6 10.6326 6.05268 10.7598 6.14645 10.8536C6.24021 10.9473 6.36739 11 6.5 11C6.63261 11 6.75979 10.9473 6.85355 10.8536C6.94732 10.7598 7 10.6326 7 10.5V3.5ZM9.5 3C9.63261 3 9.75979 3.05268 9.85355 3.14645C9.94732 3.24021 10 3.36739 10 3.5V10.5C10 10.6326 9.94732 10.7598 9.85355 10.8536C9.75979 10.9473 9.63261 11 9.5 11C9.36739 11 9.24021 10.9473 9.14645 10.8536C9.05268 10.7598 9 10.6326 9 10.5V3.5C9 3.36739 9.05268 3.24021 9.14645 3.14645C9.24021 3.05268 9.36739 3 9.5 3ZM13 3.5C13 3.36739 12.9473 3.24021 12.8536 3.14645C12.7598 3.05268 12.6326 3 12.5 3C12.3674 3 12.2402 3.05268 12.1464 3.14645C12.0527 3.24021 12 3.36739 12 3.5V10.5C12 10.6326 12.0527 10.7598 12.1464 10.8536C12.2402 10.9473 12.3674 11 12.5 11C12.6326 11 12.7598 10.9473 12.8536 10.8536C12.9473 10.7598 13 10.6326 13 10.5V3.5Z" fill="#fff"/>
</svg>
