<svg width="60" height="62" viewBox="0 0 60 62" fill="none" xmlns="http://www.w3.org/2000/svg">
<path fill-rule="evenodd" clip-rule="evenodd" d="M46.39 14.5469C46.39 20.3152 44.9566 27.8386 42.7516 26.6969C41.85 29.6414 39.957 32.1831 37.3942 33.8904C34.8313 35.5977 31.7565 36.3654 28.6919 36.0631C25.6273 35.7608 22.7618 34.4071 20.5819 32.2319C18.4021 30.0567 17.0422 27.1942 16.7333 24.1302C14.545 20.3019 11.675 12.6302 19.0533 6.65022C19.1866 6.60689 19.2666 6.24689 19.3866 5.71689C19.8433 3.71189 20.855 -0.74478 27.2366 0.106887C32.1583 0.761887 46.39 3.30355 46.39 14.5486V14.5469ZM40.0466 18.1836C40.0466 18.1836 39.2933 20.3869 40 22.8419C39.9908 25.4595 38.9556 27.9692 37.1166 29.8321C35.2776 31.695 32.7815 32.7625 30.1642 32.8055C27.5469 32.8485 25.0171 31.8635 23.118 30.062C21.2188 28.2605 20.1018 25.7861 20.0066 23.1702C20.2483 22.2536 20.2483 20.7019 20.2466 18.9769C20.245 15.8652 20.2416 12.1936 21.6666 10.6969C31.6483 17.3452 40.0466 18.1836 40.0466 18.1836Z" fill="#4EAF48"/>
<path d="M11.6667 51.5302C11.6667 49.7269 12.6217 48.1469 14.055 47.2669C14.0004 47.0594 13.9493 46.8511 13.9017 46.6419C13.6488 45.5033 13.4513 44.353 13.31 43.1952C13.1668 42.0859 13.0806 40.97 13.0517 39.8519C6.01667 42.6136 0 47.4269 0 52.4802V61.5302H60V52.4802C60 47.6402 54.4833 43.0219 47.8367 40.2136V40.2602C47.8667 41.2769 47.81 42.4436 47.7 43.5652C47.6 44.6052 47.4517 45.6419 47.2733 46.5302H48.3333C48.6428 46.5304 48.946 46.6167 49.2092 46.7795C49.4724 46.9423 49.685 47.1751 49.8233 47.4519L51.49 50.7852C51.6067 51.0169 51.6667 51.2719 51.6667 51.5302V54.8636C51.6667 55.3056 51.4911 55.7295 51.1785 56.0421C50.866 56.3546 50.442 56.5302 50 56.5302H46.6667V53.1969H48.3333V51.9236L47.3033 49.8636H42.6967L41.6667 51.9236V53.1969H43.3333V56.5302H40C39.558 56.5302 39.134 56.3546 38.8215 56.0421C38.5089 55.7295 38.3333 55.3056 38.3333 54.8636V51.5302C38.3333 51.2719 38.3933 51.0169 38.51 50.7852L40.1767 47.4519C40.315 47.1751 40.5276 46.9423 40.7908 46.7795C41.0539 46.6167 41.3572 46.5304 41.6667 46.5302H43.8583C43.895 46.3869 43.9317 46.2286 43.9683 46.0536C44.135 45.2686 44.2833 44.2736 44.3833 43.2452C44.4833 42.2152 44.53 41.1936 44.505 40.3536C44.4988 40.0056 44.4715 39.6583 44.4233 39.3136C44.3867 39.0769 44.35 38.9686 44.3433 38.9452C44.3417 38.9402 44.34 38.9386 44.3433 38.9419L44.3483 38.9402C43.464 38.6655 42.5695 38.4247 41.6667 38.2186C40.8283 38.0269 39.9617 39.1802 39.5833 39.9019H20C19.9513 39.809 19.9036 39.7157 19.8567 39.6219C19.5033 38.9186 19.0683 38.0502 18.3333 38.2186C17.6917 38.3636 17.05 38.5302 16.4083 38.7136C16.3877 39.0059 16.3788 39.2989 16.3817 39.5919C16.3883 40.5136 16.4767 41.6419 16.6183 42.7819C16.76 43.9186 16.9517 45.0252 17.1517 45.8986C17.2083 46.1502 17.265 46.3769 17.3183 46.5719C18.2712 46.6972 19.1678 47.0944 19.9007 47.716C20.6337 48.3376 21.1719 49.1573 21.4511 50.0769C21.7302 50.9965 21.7385 51.9771 21.4747 52.9012C21.211 53.8254 20.6866 54.654 19.9641 55.2878C19.2417 55.9216 18.3519 56.3338 17.4013 56.475C16.4507 56.6162 15.4795 56.4804 14.604 56.084C13.7286 55.6875 12.9859 55.0471 12.465 54.2395C11.944 53.4319 11.6669 52.4913 11.6667 51.5302Z" fill="#4EAF48"/>
<path d="M18.3333 51.5302C18.3333 52.4869 17.5633 53.2219 16.6667 53.2219C15.77 53.2219 15 52.4886 15 51.5302C15 50.5736 15.77 49.8386 16.6667 49.8386C17.5633 49.8386 18.3333 50.5719 18.3333 51.5302Z" fill="#4EAF48"/>
</svg>
