<svg width="60" height="60" viewBox="0 0 60 60" fill="none" xmlns="http://www.w3.org/2000/svg">
<path d="M31.6667 25.8333L29.1667 34.1667L31.6667 37.5L34.1667 34.1667L31.6667 25.8333Z" fill="#fff"/>
<path fill-rule="evenodd" clip-rule="evenodd" d="M46.6683 19.3883C45.1422 18.6249 43.6884 17.7245 42.325 16.6983C39.7533 14.7433 36.6667 11.58 36.6667 7.41333C36.6667 3.70167 39.4733 0 43.6467 0C45.5833 0 47.15 0.773333 48.3333 1.92833C49.515 0.773333 51.0833 0 53.0217 0C57.1933 0 60 3.705 60 7.41333C60 11.4517 56.8983 14.6183 54.3517 16.585C52.984 17.6341 51.5286 18.5636 50.0017 19.3633C50.0117 22.27 50.0583 25.045 50.1017 27.6717C50.2017 33.43 50.285 38.4783 49.9367 42.6467C49.4067 48.96 47.8417 54.0267 43.1617 56.7683C38.56 59.4633 31.76 60.4767 26.1283 59.7917C23.3017 59.4483 20.6033 58.6583 18.5617 57.295C17.0767 56.3033 15.8983 54.9683 15.345 53.295C11.8833 53.1367 8.44 52.505 5.71667 51.375C2.775 50.155 0 48.0417 0 44.7333V11.87H0.00499964C0.00171621 11.8023 4.94308e-05 11.7345 0 11.6667C0 7.065 7.46167 3.33333 16.6667 3.33333C25.8717 3.33333 33.3333 7.065 33.3333 11.6667C33.3333 11.7333 33.3317 11.8033 33.3283 11.87H33.3333V21.785C36.1099 22.1865 38.6488 23.575 40.4851 25.696C42.3213 27.817 43.3319 30.5286 43.3317 33.3341C43.3315 36.1395 42.3205 38.851 40.484 40.9717C38.6474 43.0925 36.1083 44.4806 33.3317 44.8817C33.255 48.24 30.57 50.365 27.6083 51.5717C25.1583 52.5683 22.1417 53.1183 19.0583 53.2817C19.3917 53.7283 19.8417 54.1417 20.415 54.5233C21.865 55.4933 23.9983 56.175 26.5317 56.4833C31.6167 57.1017 37.6433 56.1367 41.4783 53.8917C44.6633 52.025 46.1033 48.4667 46.615 42.3683C46.95 38.365 46.8683 33.5983 46.7733 27.9717C46.7177 25.1108 46.6827 22.2497 46.6683 19.3883ZM43.6467 3.33333C41.6767 3.33333 40 5.16 40 7.41333C40 9.905 41.9133 12.2 44.3417 14.0417C45.5867 14.9787 46.917 15.7967 48.315 16.485C49.7207 15.7594 51.0593 14.9105 52.315 13.9483C54.7683 12.0517 56.6667 9.75833 56.6667 7.415C56.6667 5.15833 54.99 3.33333 53.02 3.33333C51.6483 3.33333 50.555 4.09667 49.79 5.475L48.3333 8.10333L46.8767 5.475C46.11 4.09667 45.0167 3.33333 43.6467 3.33333ZM16.6667 20C22.1183 20 26.9583 18.6917 30 16.6667V21.7833C27.2221 22.1828 24.6813 23.5701 22.8433 25.6909C21.0052 27.8117 19.9931 30.5239 19.9925 33.3303C19.9919 36.1368 21.0028 38.8494 22.8399 40.971C24.6771 43.0926 27.2173 44.481 29.995 44.8817C29.9217 46.1783 28.8733 47.4567 26.3517 48.4833C23.81 49.5183 20.2983 50.0383 16.685 49.9983C16.1736 49.9924 15.6623 49.9751 15.1517 49.9467V19.9667C15.6517 19.9883 16.1567 20 16.6667 20ZM30 11.6667C30 12.025 29.6233 13.2467 26.9617 14.5783C24.4983 15.8083 20.8633 16.6667 16.6667 16.6667C12.47 16.6667 8.83333 15.8083 6.37167 14.5783C3.71 13.2467 3.33333 12.025 3.33333 11.6667C3.33333 11.3083 3.71 10.0867 6.37167 8.755C8.835 7.525 12.47 6.66667 16.6667 6.66667C20.8633 6.66667 24.5 7.525 26.9617 8.755C29.6233 10.0867 30 11.3083 30 11.6667ZM31.6667 41.6667C33.8768 41.6667 35.9964 40.7887 37.5592 39.2259C39.122 37.6631 40 35.5435 40 33.3333C40 31.1232 39.122 29.0036 37.5592 27.4408C35.9964 25.878 33.8768 25 31.6667 25C29.4565 25 27.3369 25.878 25.7741 27.4408C24.2113 29.0036 23.3333 31.1232 23.3333 33.3333C23.3333 35.5435 24.2113 37.6631 25.7741 39.2259C27.3369 40.7887 29.4565 41.6667 31.6667 41.6667Z" fill="#fff"/>
</svg>
