<svg width="60" height="64" viewBox="0 0 60 64" fill="none" xmlns="http://www.w3.org/2000/svg">
<path d="M57.6461 51.8294C56.141 48.2644 53.9568 45.0261 51.2153 42.2949C48.4821 39.5559 45.2443 37.3721 41.6808 35.8641C41.6489 35.8482 41.6169 35.8402 41.585 35.8242C46.5557 32.2338 49.7871 26.3855 49.7871 19.7871C49.7871 8.85632 40.9308 0 30 0C19.0692 0 10.2129 8.85632 10.2129 19.7871C10.2129 26.3855 13.4443 32.2338 18.415 35.8322C18.3831 35.8482 18.3511 35.8561 18.3192 35.8721C14.7448 37.3801 11.5374 39.5423 8.78472 42.3029C6.04571 45.0361 3.86191 48.2739 2.35391 51.8374C0.872445 55.3261 0.0734591 59.0665 0.000199515 62.856C-0.00193003 62.9411 0.0130063 63.0258 0.0441287 63.1051C0.0752512 63.1844 0.12193 63.2567 0.181414 63.3177C0.240899 63.3786 0.311985 63.4271 0.390485 63.4601C0.468986 63.4932 0.553311 63.5102 0.638493 63.5102H5.4257C5.77676 63.5102 6.05601 63.231 6.06399 62.8879C6.22356 56.7283 8.69695 50.9598 13.0693 46.5875C17.5932 42.0636 23.6011 39.5742 30 39.5742C36.3989 39.5742 42.4068 42.0636 46.9307 46.5875C51.3031 50.9598 53.7764 56.7283 53.936 62.8879C53.944 63.2389 54.2232 63.5102 54.5743 63.5102H59.3615C59.4467 63.5102 59.531 63.4932 59.6095 63.4601C59.688 63.4271 59.7591 63.3786 59.8186 63.3177C59.8781 63.2567 59.9247 63.1844 59.9559 63.1051C59.987 63.0258 60.0019 62.9411 59.9998 62.856C59.92 59.0422 59.1301 55.3321 57.6461 51.8294ZM30 33.5104C26.3378 33.5104 22.891 32.0822 20.2979 29.4892C17.7049 26.8961 16.2767 23.4493 16.2767 19.7871C16.2767 16.1249 17.7049 12.6781 20.2979 10.085C22.891 7.49197 26.3378 6.06379 30 6.06379C33.6622 6.06379 37.109 7.49197 39.7021 10.085C42.2951 12.6781 43.7233 16.1249 43.7233 19.7871C43.7233 23.4493 42.2951 26.8961 39.7021 29.4892C37.109 32.0822 33.6622 33.5104 30 33.5104Z" fill="#fff"/>
</svg>
