<svg width="17" height="27" viewBox="0 0 17 27" fill="none" xmlns="http://www.w3.org/2000/svg">
<path d="M10.0982 24.3C10.0982 23.8359 9.92773 23.4387 9.58677 23.1082C9.24581 22.7777 8.83594 22.6125 8.35714 22.6125C7.87835 22.6125 7.46847 22.7777 7.12751 23.1082C6.78655 23.4387 6.61607 23.8359 6.61607 24.3C6.61607 24.7641 6.78655 25.1613 7.12751 25.4918C7.46847 25.8223 7.87835 25.9875 8.35714 25.9875C8.83594 25.9875 9.24581 25.8223 9.58677 25.4918C9.92773 25.1613 10.0982 24.7641 10.0982 24.3ZM14.625 20.925V6.075C14.625 5.89219 14.5561 5.73398 14.4182 5.60039C14.2804 5.4668 14.1172 5.4 13.9286 5.4H2.78571C2.5971 5.4 2.43387 5.4668 2.29604 5.60039C2.1582 5.73398 2.08929 5.89219 2.08929 6.075V20.925C2.08929 21.1078 2.1582 21.266 2.29604 21.3996C2.43387 21.5332 2.5971 21.6 2.78571 21.6H13.9286C14.1172 21.6 14.2804 21.5332 14.4182 21.3996C14.5561 21.266 14.625 21.1078 14.625 20.925ZM10.4464 3.0375C10.4464 2.8125 10.3304 2.7 10.0982 2.7H6.61607C6.38393 2.7 6.26786 2.8125 6.26786 3.0375C6.26786 3.2625 6.38393 3.375 6.61607 3.375H10.0982C10.3304 3.375 10.4464 3.2625 10.4464 3.0375ZM16.7143 2.7V24.3C16.7143 25.0312 16.4386 25.6641 15.8873 26.1984C15.3359 26.7328 14.683 27 13.9286 27H2.78571C2.03125 27 1.37835 26.7328 0.827009 26.1984C0.27567 25.6641 0 25.0312 0 24.3V2.7C0 1.96875 0.27567 1.33594 0.827009 0.801562C1.37835 0.267188 2.03125 0 2.78571 0H13.9286C14.683 0 15.3359 0.267188 15.8873 0.801562C16.4386 1.33594 16.7143 1.96875 16.7143 2.7Z" fill="#9D9D9D"/>
</svg>
