<svg width="19" height="18" viewBox="0 0 19 18" fill="none" xmlns="http://www.w3.org/2000/svg">
<path d="M19 8.3125C19 12.9034 14.7464 16.625 9.5 16.625C8.55909 16.6263 7.62207 16.5041 6.71294 16.2616C6.01944 16.6131 4.427 17.2876 1.748 17.727C1.5105 17.765 1.33 17.518 1.42381 17.2971C1.84419 16.3044 2.22419 14.9815 2.33819 13.775C0.8835 12.3144 0 10.4025 0 8.3125C0 3.72163 4.25362 0 9.5 0C14.7464 0 19 3.72163 19 8.3125ZM5.9375 8.3125C5.9375 7.99756 5.81239 7.69551 5.58969 7.47281C5.36699 7.25011 5.06494 7.125 4.75 7.125C4.43506 7.125 4.13301 7.25011 3.91031 7.47281C3.68761 7.69551 3.5625 7.99756 3.5625 8.3125C3.5625 8.62744 3.68761 8.92949 3.91031 9.15219C4.13301 9.37489 4.43506 9.5 4.75 9.5C5.06494 9.5 5.36699 9.37489 5.58969 9.15219C5.81239 8.92949 5.9375 8.62744 5.9375 8.3125ZM10.6875 8.3125C10.6875 7.99756 10.5624 7.69551 10.3397 7.47281C10.117 7.25011 9.81494 7.125 9.5 7.125C9.18506 7.125 8.88301 7.25011 8.66031 7.47281C8.43761 7.69551 8.3125 7.99756 8.3125 8.3125C8.3125 8.62744 8.43761 8.92949 8.66031 9.15219C8.88301 9.37489 9.18506 9.5 9.5 9.5C9.81494 9.5 10.117 9.37489 10.3397 9.15219C10.5624 8.92949 10.6875 8.62744 10.6875 8.3125ZM14.25 9.5C14.5649 9.5 14.867 9.37489 15.0897 9.15219C15.3124 8.92949 15.4375 8.62744 15.4375 8.3125C15.4375 7.99756 15.3124 7.69551 15.0897 7.47281C14.867 7.25011 14.5649 7.125 14.25 7.125C13.9351 7.125 13.633 7.25011 13.4103 7.47281C13.1876 7.69551 13.0625 7.99756 13.0625 8.3125C13.0625 8.62744 13.1876 8.92949 13.4103 9.15219C13.633 9.37489 13.9351 9.5 14.25 9.5Z" fill="white"/>
</svg>
