<svg width="20" height="11" viewBox="0 0 20 11" fill="none" xmlns="http://www.w3.org/2000/svg">
<path d="M19.5598 0.420639C19.2778 0.151304 18.8954 0 18.4967 0C18.098 0 17.7157 0.151304 17.4337 0.420639L9.99092 7.53218L2.54815 0.420639C2.26457 0.158937 1.88476 0.0141279 1.49052 0.0174012C1.09629 0.0206745 0.719168 0.171768 0.44039 0.438139C0.161613 0.70451 0.00348282 1.06485 5.72205e-05 1.44154C-0.00336838 1.81823 0.148186 2.18114 0.422075 2.4521L8.92789 10.5794C9.20985 10.8487 9.59222 11 9.99092 11C10.3896 11 10.772 10.8487 11.054 10.5794L19.5598 2.4521C19.8416 2.18268 20 1.81732 20 1.43637C20 1.05541 19.8416 0.690055 19.5598 0.420639Z" fill="#7D7D7D"/>
</svg>
