<svg width="20" height="20" viewBox="0 0 20 20" fill="none" xmlns="http://www.w3.org/2000/svg">
<circle cx="10" cy="10" r="10" fill="#CDE9CC"/>
<path d="M11.1704 15C11.0637 15.0003 10.9582 14.9768 10.8618 14.931C10.7653 14.8853 10.6804 14.8186 10.6131 14.7357L7.16252 10.4504C7.05744 10.3226 7 10.1623 7 9.99685C7 9.83142 7.05744 9.67112 7.16252 9.54332L10.7346 5.25801C10.8559 5.11216 11.0301 5.02043 11.219 5.00302C11.4079 4.98561 11.596 5.04393 11.7419 5.16516C11.8878 5.28639 11.9796 5.4606 11.997 5.64946C12.0144 5.83832 11.9561 6.02636 11.8348 6.17221L8.64136 10.0004L11.7276 13.8286C11.815 13.9335 11.8705 14.0611 11.8875 14.1965C11.9046 14.3319 11.8825 14.4693 11.8239 14.5925C11.7653 14.7158 11.6726 14.8196 11.5568 14.8918C11.4409 14.964 11.3069 15.0015 11.1704 15Z" fill="#5F735E"/>
</svg>
