<svg width="20" height="20" viewBox="0 0 20 20" fill="none" xmlns="http://www.w3.org/2000/svg">
<path d="M18.6518 1.00541C18.7623 0.894961 18.8243 0.745157 18.8243 0.588956C18.8243 0.432755 18.7623 0.282952 18.6518 0.172501C18.5414 0.0620505 18.3916 2.32758e-09 18.2354 0C18.0792 -2.32758e-09 17.9294 0.0620505 17.8189 0.172501L14.6802 3.31238C13.7668 2.60167 12.6253 2.24902 11.4702 2.32072C10.3151 2.39243 9.22596 2.88355 8.40749 3.70178L8.05456 4.05471C7.89165 4.2175 7.76241 4.41079 7.67423 4.62355C7.58606 4.83631 7.54067 5.06436 7.54067 5.29466C7.54067 5.52497 7.58606 5.75302 7.67423 5.96578C7.76241 6.17853 7.89165 6.37183 8.05456 6.53462L10.9545 9.43333C11.2839 9.19805 11.6368 8.99453 12.0074 8.82394L8.8863 5.70171C8.77854 5.59365 8.71802 5.44727 8.71802 5.29466C8.71802 5.14206 8.77854 4.99568 8.8863 4.88762L9.23922 4.53469C9.81192 3.96151 10.5625 3.6001 11.3677 3.50978C12.1729 3.41947 12.9849 3.60563 13.6704 4.03769C14.3558 4.46976 14.874 5.12205 15.1398 5.88747C15.4056 6.65289 15.4032 7.48594 15.1331 8.24985C15.5355 8.27573 15.9296 8.33926 16.3095 8.43572C16.5294 7.70872 16.5716 6.9396 16.4329 6.19288C16.2941 5.44616 15.9783 4.7436 15.5119 4.14412L18.6518 1.00541ZM6.53462 8.05456L9.43333 10.9545C9.19805 11.2839 8.99453 11.6368 8.82394 12.0074L5.70288 8.88747C5.64935 8.83394 5.5858 8.79147 5.51586 8.7625C5.44592 8.73352 5.37096 8.71861 5.29525 8.71861C5.21955 8.71861 5.14458 8.73352 5.07464 8.7625C5.0047 8.79147 4.94115 8.83394 4.88762 8.88747L4.53469 9.2404C3.96092 9.81285 3.59899 10.5635 3.50839 11.3689C3.41779 12.1743 3.60392 12.9866 4.03617 13.6722C4.46842 14.3578 5.12108 14.876 5.88686 15.1415C6.65264 15.407 7.48596 15.404 8.24985 15.1331C8.27573 15.5366 8.33926 15.9296 8.43572 16.3095C7.70872 16.5294 6.9396 16.5716 6.19288 16.4329C5.44616 16.2941 4.7436 15.9783 4.14412 15.5119L1.00541 18.6518C0.894961 18.7623 0.745157 18.8243 0.588956 18.8243C0.432755 18.8243 0.282952 18.7623 0.172501 18.6518C0.0620505 18.5414 2.32758e-09 18.3916 0 18.2354C-2.32758e-09 18.0792 0.0620505 17.9294 0.172501 17.8189L3.31238 14.6802C2.60182 13.7667 2.24937 12.6251 2.32129 11.47C2.39322 10.3149 2.88456 9.22581 3.70296 8.40749L4.05589 8.05456C4.38461 7.7259 4.83041 7.54126 5.29525 7.54126C5.76009 7.54126 6.2059 7.7259 6.53462 8.05456ZM20 14.7061C20 16.1101 19.4422 17.4566 18.4494 18.4494C17.4566 19.4422 16.1101 20 14.7061 20C13.302 20 11.9555 19.4422 10.9627 18.4494C9.96991 17.4566 9.41216 16.1101 9.41216 14.7061C9.41216 13.302 9.96991 11.9555 10.9627 10.9627C11.9555 9.96991 13.302 9.41216 14.7061 9.41216C16.1101 9.41216 17.4566 9.96991 18.4494 10.9627C19.4422 11.9555 20 13.302 20 14.7061ZM17.4754 12.525C17.4207 12.4702 17.3558 12.4267 17.2844 12.3971C17.2129 12.3674 17.1363 12.3522 17.0589 12.3522C16.9816 12.3522 16.905 12.3674 16.8335 12.3971C16.762 12.4267 16.6971 12.4702 16.6425 12.525L13.5297 15.639L12.7697 14.8778C12.6592 14.7674 12.5094 14.7053 12.3532 14.7053C12.197 14.7053 12.0472 14.7674 11.9368 14.8778C11.8263 14.9883 11.7643 15.1381 11.7643 15.2943C11.7643 15.4505 11.8263 15.6003 11.9368 15.7107L13.1132 16.8872C13.1678 16.942 13.2327 16.9854 13.3042 17.0151C13.3757 17.0447 13.4523 17.06 13.5297 17.06C13.607 17.06 13.6836 17.0447 13.7551 17.0151C13.8266 16.9854 13.8915 16.942 13.9461 16.8872L17.4754 13.3579C17.5302 13.3033 17.5736 13.2383 17.6033 13.1669C17.6329 13.0954 17.6482 13.0188 17.6482 12.9414C17.6482 12.8641 17.6329 12.7875 17.6033 12.716C17.5736 12.6445 17.5302 12.5796 17.4754 12.525Z" fill="#388333"/>
</svg>
