<svg width="22" height="24" viewBox="0 0 22 24" fill="none" xmlns="http://www.w3.org/2000/svg">
<path d="M1.69231 22H5.5V18.1923H1.69231V22ZM6.34615 22H10.5769V18.1923H6.34615V22ZM1.69231 17.3462H5.5V13.1154H1.69231V17.3462ZM6.34615 17.3462H10.5769V13.1154H6.34615V17.3462ZM1.69231 12.2692H5.5V8.46154H1.69231V12.2692ZM11.4231 22H15.6538V18.1923H11.4231V22ZM6.34615 12.2692H10.5769V8.46154H6.34615V12.2692ZM16.5 22H20.3077V18.1923H16.5V22ZM11.4231 17.3462H15.6538V13.1154H11.4231V17.3462ZM6.76923 5.92308V2.11538C6.76923 2.0008 6.72736 1.90164 6.64363 1.81791C6.5599 1.73417 6.46074 1.69231 6.34615 1.69231H5.5C5.38542 1.69231 5.28626 1.73417 5.20252 1.81791C5.11879 1.90164 5.07692 2.0008 5.07692 2.11538V5.92308C5.07692 6.03766 5.11879 6.13682 5.20252 6.22055C5.28626 6.30429 5.38542 6.34615 5.5 6.34615H6.34615C6.46074 6.34615 6.5599 6.30429 6.64363 6.22055C6.72736 6.13682 6.76923 6.03766 6.76923 5.92308ZM16.5 17.3462H20.3077V13.1154H16.5V17.3462ZM11.4231 12.2692H15.6538V8.46154H11.4231V12.2692ZM16.5 12.2692H20.3077V8.46154H16.5V12.2692ZM16.9231 5.92308V2.11538C16.9231 2.0008 16.8812 1.90164 16.7975 1.81791C16.7137 1.73417 16.6146 1.69231 16.5 1.69231H15.6538C15.5393 1.69231 15.4401 1.73417 15.3564 1.81791C15.2726 1.90164 15.2308 2.0008 15.2308 2.11538V5.92308C15.2308 6.03766 15.2726 6.13682 15.3564 6.22055C15.4401 6.30429 15.5393 6.34615 15.6538 6.34615H16.5C16.6146 6.34615 16.7137 6.30429 16.7975 6.22055C16.8812 6.13682 16.9231 6.03766 16.9231 5.92308ZM22 5.07692V22C22 22.4583 21.8325 22.855 21.4976 23.1899C21.1627 23.5248 20.766 23.6923 20.3077 23.6923H1.69231C1.23397 23.6923 0.83734 23.5248 0.502404 23.1899C0.167468 22.855 0 22.4583 0 22V5.07692C0 4.61859 0.167468 4.22195 0.502404 3.88702C0.83734 3.55208 1.23397 3.38462 1.69231 3.38462H3.38462V2.11538C3.38462 1.53365 3.59175 1.03566 4.00601 0.621394C4.42027 0.207131 4.91827 0 5.5 0H6.34615C6.92788 0 7.42588 0.207131 7.84014 0.621394C8.25441 1.03566 8.46154 1.53365 8.46154 2.11538V3.38462H13.5385V2.11538C13.5385 1.53365 13.7456 1.03566 14.1599 0.621394C14.5741 0.207131 15.0721 0 15.6538 0H16.5C17.0817 0 17.5797 0.207131 17.994 0.621394C18.4083 1.03566 18.6154 1.53365 18.6154 2.11538V3.38462H20.3077C20.766 3.38462 21.1627 3.55208 21.4976 3.88702C21.8325 4.22195 22 4.61859 22 5.07692Z" fill="white"/>
</svg>
