<svg width="24" height="28" viewBox="0 0 24 28" fill="none" xmlns="http://www.w3.org/2000/svg">
<path d="M12.4758 2.96313V5.45542H10.5095V2.96313H12.4758Z" fill="#607D8B"/>
<path d="M9.5108 0.641131C9.5108 0.483106 9.59885 0.336368 9.74107 0.266385C9.98714 0.142223 10.4928 0 11.4997 0C12.5065 0 13.0122 0.142223 13.2605 0.266385C13.4027 0.336368 13.4908 0.483106 13.4908 0.641131V2.67514C13.4908 2.97991 13.2063 3.0228 12.9761 3.0228L9.90587 2.98668C9.55144 2.93701 9.51532 2.90541 9.51532 2.67514V0.641131H9.5108Z" fill="#B0BEC5"/>
<path d="M11.4997 3.18762C12.5782 3.18762 13.4525 3.02995 13.4525 2.83545C13.4525 2.64095 12.5782 2.48328 11.4997 2.48328C10.4213 2.48328 9.547 2.64095 9.547 2.83545C9.547 3.02995 10.4213 3.18762 11.4997 3.18762Z" fill="#607D8B"/>
<path d="M10.915 1.94377C10.8924 2.05213 10.6373 2.11985 10.5809 1.87153C10.5109 1.56225 10.5403 0.853393 10.5877 0.512509C10.6125 0.331909 10.9241 0.270957 10.9466 0.607325C10.9647 0.880483 10.9376 1.83541 10.915 1.94377ZM10.2287 1.96408C10.2107 2.19435 9.80884 2.48331 9.78853 2.08373C9.76144 1.55548 9.7795 1.0656 9.7953 0.790183C9.81336 0.460587 10.222 0.399634 10.2265 0.749548C10.2287 1.07689 10.2491 1.69093 10.2287 1.96408Z" fill="#FBE9E7"/>
<path d="M12.1476 1.94377C12.1702 2.05213 12.4253 2.11985 12.4817 1.87153C12.5517 1.56225 12.5224 0.853393 12.475 0.512509C12.4501 0.331909 12.1386 0.270957 12.116 0.607325C12.0979 0.880483 12.125 1.83541 12.1476 1.94377Z" fill="#78909C"/>
<path d="M12.8091 1.964C12.8271 2.19427 13.229 2.48323 13.2493 2.08365C13.2764 1.55539 13.2583 1.06552 13.2425 0.7901C13.2244 0.460504 12.8158 0.399551 12.8113 0.749465C12.8091 1.0768 12.7887 1.69084 12.8091 1.964ZM21.4415 7.34296L19.9617 8.82275L18.7933 7.65427L20.273 6.17447L21.4415 7.34296Z" fill="#607D8B"/>
<path d="M21.058 4.20127C21.1038 4.15472 21.1617 4.12198 21.2252 4.10681C21.2886 4.09164 21.3551 4.09465 21.417 4.11548C21.6382 4.18998 22.022 4.40444 22.6202 5.00268C23.2184 5.60092 23.4329 5.98469 23.5074 6.20593C23.5503 6.33235 23.5142 6.47006 23.4216 6.56487L22.2138 7.77264C22.0332 7.95324 21.8391 7.81102 21.7014 7.67331L19.8976 5.82667C19.717 5.58737 19.7125 5.54674 19.8502 5.40903L21.058 4.20127Z" fill="#B0BEC5"/>
<path d="M22.0963 7.84782C22.2118 7.73232 21.7858 7.11913 21.1449 6.47821C20.5039 5.83729 19.8907 5.41135 19.7752 5.52684C19.6597 5.64234 20.0857 6.25553 20.7266 6.89645C21.3676 7.53737 21.9808 7.96331 22.0963 7.84782Z" fill="#607D8B"/>
<path d="M21.119 5.81082C21.04 5.86274 20.8503 5.74986 20.9632 5.56926C21.1054 5.34351 21.5434 4.93942 21.7759 4.76559C21.8978 4.67303 22.119 4.82203 21.9339 5.03423C21.7804 5.20806 21.1957 5.75889 21.119 5.81082ZM20.6991 5.41349C20.5523 5.53991 20.1415 5.47219 20.365 5.22386C20.6629 4.89201 20.9655 4.61434 21.137 4.45857C21.3447 4.27346 21.6224 4.48115 21.417 4.69109C21.2273 4.8875 20.8729 5.2645 20.6991 5.41349Z" fill="#FBE9E7"/>
<path d="M11.4997 27.09C17.8509 27.09 22.9995 21.9414 22.9995 15.5903C22.9995 9.23918 17.8509 4.09058 11.4997 4.09058C5.1486 4.09058 0 9.23918 0 15.5903C0 21.9414 5.1486 27.09 11.4997 27.09Z" fill="#B0BEC5"/>
<path d="M11.4997 24.8167C16.5953 24.8167 20.7261 20.6859 20.7261 15.5903C20.7261 10.4947 16.5953 6.36389 11.4997 6.36389C6.40406 6.36389 2.27325 10.4947 2.27325 15.5903C2.27325 20.6859 6.40406 24.8167 11.4997 24.8167Z" fill="#FAFAFA"/>
<path d="M11.4998 8.82229C11.3169 8.82229 11.1679 8.6733 11.1679 8.49044V7.49714C11.1679 7.31428 11.3169 7.16528 11.4998 7.16528C11.6826 7.16528 11.8316 7.31428 11.8316 7.49714V8.49044C11.8316 8.67555 11.6826 8.82229 11.4998 8.82229ZM11.4998 24.0808C11.3169 24.0808 11.1679 23.9318 11.1679 23.7489V22.7556C11.1679 22.5727 11.3169 22.4238 11.4998 22.4238C11.6826 22.4238 11.8316 22.5727 11.8316 22.7556V23.7489C11.8316 23.9318 11.6826 24.0808 11.4998 24.0808ZM19.6245 15.956H18.6312C18.4484 15.956 18.2994 15.807 18.2994 15.6242C18.2994 15.4413 18.4484 15.2923 18.6312 15.2923H19.6245C19.8074 15.2923 19.9564 15.4413 19.9564 15.6242C19.9564 15.807 19.8074 15.956 19.6245 15.956ZM4.36831 15.956H3.375C3.19215 15.956 3.04315 15.807 3.04315 15.6242C3.04315 15.4413 3.19215 15.2923 3.375 15.2923H4.36831C4.55116 15.2923 4.70016 15.4413 4.70016 15.6242C4.70016 15.807 4.55116 15.956 4.36831 15.956Z" fill="#B2947C"/>
<path d="M11.4997 8.82229C11.3168 8.82229 11.1678 8.6733 11.1678 8.49044V7.49714C11.1678 7.31428 11.3168 7.16528 11.4997 7.16528C11.6825 7.16528 11.8315 7.31428 11.8315 7.49714V8.49044C11.8315 8.67555 11.6825 8.82229 11.4997 8.82229ZM11.4997 24.0808C11.3168 24.0808 11.1678 23.9318 11.1678 23.7489V22.7556C11.1678 22.5727 11.3168 22.4238 11.4997 22.4238C11.6825 22.4238 11.8315 22.5727 11.8315 22.7556V23.7489C11.8315 23.9318 11.6825 24.0808 11.4997 24.0808ZM7.64611 9.61242L7.14946 8.75231C7.0569 8.59428 7.11108 8.39111 7.27137 8.29855C7.42939 8.20599 7.63257 8.26017 7.72513 8.42046L8.22178 9.28056C8.31433 9.43859 8.26015 9.64176 8.09987 9.73432C7.94185 9.82462 7.73867 9.77044 7.64611 9.61242ZM15.2765 22.8256L14.7798 21.9655C14.6873 21.8075 14.7437 21.6043 14.9017 21.5117C15.0598 21.4192 15.2629 21.4756 15.3555 21.6336L15.8521 22.4937C15.9447 22.6518 15.8883 22.8549 15.7302 22.9475C15.57 23.0401 15.3668 22.9859 15.2765 22.8256Z" fill="#B2947C"/>
<path d="M7.64616 9.61244L7.14951 8.75233C7.05695 8.5943 7.11113 8.39113 7.27141 8.29857C7.42944 8.20601 7.63261 8.26019 7.72517 8.42048L8.22182 9.28059C8.31438 9.43861 8.2602 9.64179 8.09992 9.73434C7.94189 9.82464 7.73872 9.77046 7.64616 9.61244ZM15.2765 22.8256L14.7799 21.9655C14.6873 21.8075 14.7438 21.6043 14.9018 21.5117C15.0598 21.4192 15.263 21.4756 15.3555 21.6336L15.8522 22.4938C15.9447 22.6518 15.8883 22.855 15.7303 22.9475C15.57 23.0401 15.3668 22.9859 15.2765 22.8256ZM5.15839 12.344L4.29828 11.8474C4.14025 11.7548 4.08607 11.5539 4.17638 11.3936C4.26893 11.2356 4.46985 11.1814 4.63013 11.2717L5.49024 11.7684C5.64827 11.8609 5.70245 12.0618 5.61215 12.2221C5.51959 12.3824 5.31641 12.4366 5.15839 12.344ZM18.3716 19.9744L17.5115 19.4777C17.3534 19.3852 17.2992 19.1843 17.3895 19.024C17.4821 18.8659 17.683 18.8118 17.8433 18.9021L18.7034 19.3987C18.8614 19.4913 18.9156 19.6922 18.8253 19.8525C18.7328 20.0105 18.5296 20.0647 18.3716 19.9744ZM14.8995 9.73434C14.7415 9.64179 14.6873 9.44087 14.7776 9.28059L15.2743 8.42048C15.3668 8.26245 15.5677 8.20827 15.728 8.29857C15.8861 8.39113 15.9402 8.59205 15.8499 8.75233L15.3533 9.61244C15.2607 9.77046 15.0575 9.82464 14.8995 9.73434ZM7.27141 22.9475C7.11339 22.855 7.05921 22.654 7.14951 22.4938L7.64616 21.6336C7.73872 21.4756 7.93963 21.4214 8.09992 21.5117C8.25794 21.6043 8.31212 21.8052 8.22182 21.9655L7.72517 22.8256C7.63261 22.9859 7.42944 23.0401 7.27141 22.9475ZM17.3895 12.2244C17.297 12.0663 17.3512 11.8632 17.5115 11.7706L18.3716 11.274C18.5296 11.1814 18.7328 11.2378 18.8253 11.3959C18.9179 11.5539 18.8614 11.7571 18.7034 11.8496L17.8433 12.3463C17.683 12.4366 17.4798 12.3824 17.3895 12.2244ZM4.17638 19.8525C4.08382 19.6945 4.14025 19.4913 4.29828 19.3987L5.15839 18.9021C5.31641 18.8095 5.51959 18.8659 5.61215 19.024C5.70471 19.182 5.64827 19.3852 5.49024 19.4777L4.63013 19.9744C4.46985 20.0647 4.26668 20.0105 4.17638 19.8525Z" fill="#B2947C"/>
<path opacity="0.42" d="M11.4997 13.9762C12.7203 13.9762 13.7098 12.9867 13.7098 11.7661C13.7098 10.5455 12.7203 9.55603 11.4997 9.55603C10.2791 9.55603 9.28961 10.5455 9.28961 11.7661C9.28961 12.9867 10.2791 13.9762 11.4997 13.9762Z" fill="#82AEC0"/>
<path d="M11.8383 7.81779C11.8383 7.81779 11.8767 7.07959 11.4907 7.07959C11.1047 7.07959 11.143 7.81779 11.143 7.81779L10.8812 15.6242H12.1228L11.8383 7.81779Z" fill="#563428"/>
<path d="M11.4997 16.5407C12.0122 16.5407 12.4276 16.1253 12.4276 15.6129C12.4276 15.1005 12.0122 14.6851 11.4997 14.6851C10.9873 14.6851 10.5719 15.1005 10.5719 15.6129C10.5719 16.1253 10.9873 16.5407 11.4997 16.5407Z" fill="#563428"/>
<path opacity="0.64" d="M8.79973 6.18558C7.56939 6.54226 5.84466 7.08858 4.00253 9.2919C2.18073 11.4704 1.80372 14.0011 1.68859 15.7484C1.68859 15.7484 0.636593 17.0645 0.586928 16.8184C0.189607 14.9108 0.991021 10.6487 3.08599 8.39567C5.52409 5.77245 8.69588 4.84236 9.84044 4.66853C10.0391 4.63919 9.17447 6.07722 8.79973 6.18558Z" fill="#ECEFF1"/>
</svg>
