<svg width="100" height="100" viewBox="0 0 100 100" fill="none" xmlns="http://www.w3.org/2000/svg">
<rect width="100" height="100" rx="20" fill="#4EAF48"/>
<circle cx="46.3238" cy="45.7827" r="30" transform="rotate(9 46.3238 45.7827)" fill="white"/>
<path d="M45.6113 16.9274C45.35 16.5929 45.5982 16.1054 46.0224 16.12L80.1354 17.2882C80.4357 17.2985 80.6592 17.5694 80.6122 17.8661L75.0143 53.2098C74.9459 53.6416 74.3954 53.7839 74.1264 53.4394L45.6113 16.9274Z" fill="white" stroke="white"/>
<circle cx="46.3238" cy="45.7826" r="25.7143" transform="rotate(9 46.3238 45.7826)" fill="#4EAF48"/>
<path d="M25.6676 88.1151C25.1534 88.1151 24.7145 87.983 24.3509 87.7188C23.9872 87.4545 23.7287 87.071 23.5753 86.5682C23.4247 86.0653 23.4077 85.4545 23.5241 84.7358C23.6463 84.0085 23.8693 83.3949 24.1932 82.8949C24.517 82.392 24.9034 82.0128 25.3523 81.7571C25.804 81.4986 26.2813 81.3693 26.7841 81.3693C27.1705 81.3693 27.4759 81.4347 27.7003 81.5653C27.9276 81.6932 28.098 81.848 28.2116 82.0298C28.3253 82.2088 28.4091 82.3778 28.4631 82.5369H28.527L29.0682 79.2727H30.6151L29.1662 88H27.6491L27.8239 86.9688H27.7301C27.6222 87.1278 27.4787 87.2969 27.2997 87.4759C27.1207 87.652 26.8977 87.8026 26.6307 87.9276C26.3636 88.0526 26.0426 88.1151 25.6676 88.1151ZM26.2812 86.8494C26.6108 86.8494 26.9063 86.7614 27.1676 86.5852C27.4318 86.4062 27.652 86.1577 27.8281 85.8395C28.0043 85.5213 28.1278 85.1506 28.1989 84.7273C28.2699 84.304 28.2699 83.9361 28.1989 83.6236C28.1278 83.3111 27.9901 83.0682 27.7855 82.8949C27.581 82.7216 27.3125 82.6349 26.9801 82.6349C26.6392 82.6349 26.3395 82.7244 26.081 82.9034C25.8253 83.0824 25.6151 83.3295 25.4503 83.6449C25.2855 83.9602 25.169 84.321 25.1009 84.7273C25.0327 85.1364 25.0284 85.5014 25.0881 85.8224C25.1506 86.1406 25.2798 86.392 25.4759 86.5767C25.6747 86.7585 25.9432 86.8494 26.2812 86.8494ZM33.6982 88.1278C33.0419 88.1278 32.4993 87.9915 32.0703 87.7188C31.6413 87.4432 31.3402 87.054 31.1669 86.5511C30.9964 86.0455 30.968 85.4503 31.0817 84.7656C31.1925 84.0923 31.4183 83.5014 31.7592 82.9929C32.1001 82.4815 32.5263 82.0838 33.0376 81.7997C33.5518 81.5128 34.12 81.3693 34.7422 81.3693C35.1456 81.3693 35.5163 81.4347 35.8544 81.5653C36.1925 81.6932 36.478 81.892 36.7109 82.1619C36.9439 82.4318 37.1044 82.7756 37.1925 83.1932C37.2805 83.608 37.2763 84.1023 37.1797 84.6761L37.1072 85.1491H31.7379L31.9041 84.1094H35.7905C35.8416 83.8139 35.8246 83.5511 35.7393 83.321C35.6541 83.0881 35.5121 82.9048 35.3132 82.7713C35.1143 82.6378 34.8658 82.571 34.5675 82.571C34.2635 82.571 33.9794 82.6491 33.7152 82.8054C33.4538 82.9588 33.2337 83.1577 33.0547 83.402C32.8757 83.6463 32.7621 83.9034 32.7138 84.1733L32.5391 85.1705C32.4766 85.5795 32.4908 85.9134 32.5817 86.1719C32.6726 86.4304 32.8317 86.6207 33.0589 86.7429C33.2862 86.8651 33.5732 86.9261 33.9197 86.9261C34.147 86.9261 34.3572 86.8949 34.5504 86.8324C34.7436 86.7699 34.9155 86.6761 35.0661 86.5511C35.2195 86.4233 35.3473 86.267 35.4496 86.0824L36.8601 86.2443C36.7038 86.625 36.4751 86.9574 36.174 87.2415C35.8729 87.5227 35.5121 87.7415 35.0916 87.8977C34.674 88.0511 34.2095 88.1278 33.6982 88.1278ZM40.1541 81.4545L41.0746 83.8707L42.8175 81.4545H44.4496L41.9311 84.7273L43.3928 88H41.7692L40.7763 85.6435L39.0121 88H37.3757L39.9155 84.7273L38.5178 81.4545H40.1541ZM47.1438 88.1278C46.4904 88.1278 45.9535 87.9844 45.533 87.6974C45.1126 87.4105 44.8185 87.0142 44.6509 86.5085C44.4862 86 44.4592 85.4148 44.57 84.7528C44.6779 84.0881 44.9009 83.5014 45.239 82.9929C45.5799 82.4815 46.0089 82.0838 46.5259 81.7997C47.043 81.5128 47.6211 81.3693 48.2603 81.3693C48.7915 81.3693 49.2447 81.4673 49.6197 81.6634C49.9975 81.8565 50.2788 82.1307 50.4634 82.4858C50.6509 82.8381 50.7234 83.25 50.6808 83.7216H49.2021C49.1964 83.4062 49.0984 83.1435 48.908 82.9332C48.7177 82.7202 48.4393 82.6136 48.0728 82.6136C47.7546 82.6136 47.462 82.6989 47.195 82.8693C46.9279 83.0369 46.7021 83.2784 46.5174 83.5938C46.3327 83.9091 46.2049 84.2869 46.1339 84.7273C46.06 85.1733 46.0614 85.5568 46.1381 85.8778C46.2177 86.196 46.3612 86.4418 46.5685 86.6151C46.7788 86.7855 47.0444 86.8707 47.3654 86.8707C47.5927 86.8707 47.8043 86.8281 48.0004 86.7429C48.1964 86.6548 48.3683 86.5284 48.516 86.3636C48.6665 86.1989 48.7844 85.9986 48.8697 85.7628H50.3441C50.2276 86.2259 50.0202 86.6364 49.7219 86.9943C49.4265 87.3494 49.06 87.6278 48.6225 87.8295C48.185 88.0284 47.6921 88.1278 47.1438 88.1278ZM54.1037 88.1278C53.4588 88.1278 52.9219 87.9858 52.4929 87.7017C52.0668 87.4176 51.767 87.0185 51.5938 86.5043C51.4205 85.9901 51.3892 85.3935 51.5 84.7145C51.6108 84.044 51.8324 83.4574 52.1648 82.9545C52.5 82.4517 52.9219 82.0625 53.4304 81.7869C53.9418 81.5085 54.5142 81.3693 55.1477 81.3693C55.7926 81.3693 56.3281 81.5128 56.7543 81.7997C57.1804 82.0838 57.4801 82.483 57.6534 82.9972C57.8295 83.5114 57.8622 84.1108 57.7514 84.7955C57.6435 85.4631 57.4205 86.0469 57.0824 86.5469C56.7472 87.0469 56.3253 87.4361 55.8168 87.7145C55.3082 87.9901 54.7372 88.1278 54.1037 88.1278ZM54.2315 86.892C54.5895 86.892 54.9034 86.7955 55.1733 86.6023C55.446 86.4062 55.669 86.1435 55.8423 85.8139C56.0185 85.4815 56.1406 85.1122 56.2088 84.706C56.2713 84.3139 56.2727 83.9588 56.2131 83.6406C56.1534 83.3196 56.0256 83.0653 55.8295 82.8778C55.6364 82.6875 55.3679 82.5923 55.0241 82.5923C54.6662 82.5923 54.3494 82.6918 54.0739 82.8906C53.8011 83.0866 53.5781 83.3509 53.4048 83.6832C53.2315 84.0128 53.1122 84.3807 53.0469 84.7869C52.9815 85.179 52.9787 85.5341 53.0384 85.8523C53.098 86.1705 53.2259 86.4233 53.4219 86.6108C53.6179 86.7983 53.8878 86.892 54.2315 86.892ZM58.5366 88L59.6275 81.4545H61.1062L60.9187 82.5668H60.9996C61.1985 82.1918 61.4727 81.8991 61.8221 81.6889C62.1715 81.4759 62.565 81.3693 63.0025 81.3693C63.4428 81.3693 63.7979 81.4773 64.0678 81.6932C64.3406 81.9062 64.5082 82.1974 64.5707 82.5668H64.6388C64.8434 82.2003 65.136 81.9091 65.5167 81.6932C65.9002 81.4773 66.3306 81.3693 66.8079 81.3693C67.4045 81.3693 67.8619 81.5597 68.18 81.9403C68.4982 82.321 68.5962 82.8764 68.4741 83.6065L67.7411 88H66.1985L66.8974 83.8452C66.9599 83.4389 66.8974 83.142 66.7099 82.9545C66.5252 82.7642 66.2766 82.669 65.9641 82.669C65.592 82.669 65.2823 82.7841 65.0352 83.0142C64.7908 83.2443 64.6403 83.5455 64.5835 83.9176L63.8974 88H62.3846L63.092 83.7812C63.1431 83.4432 63.0835 83.1733 62.913 82.9716C62.7454 82.7699 62.4982 82.669 62.1715 82.669C61.9499 82.669 61.7383 82.7259 61.5366 82.8395C61.3349 82.9531 61.163 83.1122 61.021 83.3168C60.8817 83.5185 60.7908 83.7528 60.7482 84.0199L60.0835 88H58.5366Z" fill="white"/>
</svg>
