<svg width="30" height="34" viewBox="0 0 30 34" fill="none" xmlns="http://www.w3.org/2000/svg">
<path d="M8.57143 16.2031V13.5469C8.57143 13.1068 8.93123 12.75 9.375 12.75H12.0536C12.4973 12.75 12.8571 13.1068 12.8571 13.5469V16.2031C12.8571 16.6432 12.4973 17 12.0536 17H9.375C8.93123 17 8.57143 16.6432 8.57143 16.2031ZM17.9464 17H20.625C21.0688 17 21.4286 16.6432 21.4286 16.2031V13.5469C21.4286 13.1068 21.0688 12.75 20.625 12.75H17.9464C17.5027 12.75 17.1429 13.1068 17.1429 13.5469V16.2031C17.1429 16.6432 17.5027 17 17.9464 17ZM12.8571 22.5781V19.9219C12.8571 19.4818 12.4973 19.125 12.0536 19.125H9.375C8.93123 19.125 8.57143 19.4818 8.57143 19.9219V22.5781C8.57143 23.0182 8.93123 23.375 9.375 23.375H12.0536C12.4973 23.375 12.8571 23.0182 12.8571 22.5781ZM17.9464 23.375H20.625C21.0688 23.375 21.4286 23.0182 21.4286 22.5781V19.9219C21.4286 19.4818 21.0688 19.125 20.625 19.125H17.9464C17.5027 19.125 17.1429 19.4818 17.1429 19.9219V22.5781C17.1429 23.0182 17.5027 23.375 17.9464 23.375ZM30 31.6094V34H0V31.6094C0 31.1693 0.359799 30.8125 0.803571 30.8125H2.10938V5.64686C2.10938 4.87541 2.82891 4.25 3.71652 4.25H9.64286V1.59375C9.64286 0.713535 10.3624 0 11.25 0H18.75C19.6376 0 20.3571 0.713535 20.3571 1.59375V4.25H26.2835C27.1711 4.25 27.8906 4.87541 27.8906 5.64686V30.8125H29.1964C29.6402 30.8125 30 31.1693 30 31.6094ZM5.32366 30.7461H12.8571V26.2969C12.8571 25.8568 13.2169 25.5 13.6607 25.5H16.3393C16.7831 25.5 17.1429 25.8568 17.1429 26.2969V30.7461H24.6763V7.4375H20.3571V9.03125C20.3571 9.91146 19.6376 10.625 18.75 10.625H11.25C10.3624 10.625 9.64286 9.91146 9.64286 9.03125V7.4375H5.32366V30.7461ZM17.8125 4.25H16.0714V2.52344C16.0714 2.41777 16.0291 2.31642 15.9537 2.2417C15.8784 2.16698 15.7762 2.125 15.6696 2.125H14.3304C14.2238 2.125 14.1216 2.16698 14.0463 2.2417C13.9709 2.31642 13.9286 2.41777 13.9286 2.52344V4.25H12.1875C12.0809 4.25 11.9787 4.29198 11.9034 4.3667C11.828 4.44142 11.7857 4.54277 11.7857 4.64844V5.97656C11.7857 6.08223 11.828 6.18358 11.9034 6.2583C11.9787 6.33302 12.0809 6.375 12.1875 6.375H13.9286V8.10156C13.9286 8.20723 13.9709 8.30858 14.0463 8.3833C14.1216 8.45802 14.2238 8.5 14.3304 8.5H15.6696C15.7762 8.5 15.8784 8.45802 15.9537 8.3833C16.0291 8.30858 16.0714 8.20723 16.0714 8.10156V6.375H17.8125C17.9191 6.375 18.0213 6.33302 18.0966 6.2583C18.172 6.18358 18.2143 6.08223 18.2143 5.97656V4.64844C18.2143 4.54277 18.172 4.44142 18.0966 4.3667C18.0213 4.29198 17.9191 4.25 17.8125 4.25Z" fill="#4EAF48"/>
</svg>
