<svg width="20" height="23" viewBox="0 0 20 23" fill="none" xmlns="http://www.w3.org/2000/svg">
<path fill-rule="evenodd" clip-rule="evenodd" d="M1 16.4285C1 16.0875 1.13546 15.7605 1.37658 15.5194C1.6177 15.2783 1.94472 15.1428 2.28571 15.1428H4.85714C5.19814 15.1428 5.52516 15.2783 5.76628 15.5194C6.0074 15.7605 6.14286 16.0875 6.14286 16.4285C6.14286 16.7695 6.0074 17.0965 5.76628 17.3377C5.52516 17.5788 5.19814 17.7142 4.85714 17.7142H2.28571C1.94472 17.7142 1.6177 17.5788 1.37658 17.3377C1.13546 17.0965 1 16.7695 1 16.4285V16.4285Z" stroke="white" stroke-width="2" stroke-linecap="round" stroke-linejoin="round"/>
<path d="M3.57141 0.999965L3.57141 15.1428" stroke="white" stroke-width="2" stroke-linecap="round" stroke-linejoin="round"/>
<path d="M3.57141 17.7143L3.57141 21.5714" stroke="white" stroke-width="2" stroke-linecap="round" stroke-linejoin="round"/>
<path fill-rule="evenodd" clip-rule="evenodd" d="M13.8571 16.4285C13.8571 16.0875 13.9926 15.7605 14.2337 15.5194C14.4748 15.2783 14.8018 15.1428 15.1428 15.1428H17.7143C18.0553 15.1428 18.3823 15.2783 18.6234 15.5194C18.8645 15.7605 19 16.0875 19 16.4285C19 16.7695 18.8645 17.0965 18.6234 17.3377C18.3823 17.5788 18.0553 17.7142 17.7143 17.7142H15.1428C14.8018 17.7142 14.4748 17.5788 14.2337 17.3377C13.9926 17.0965 13.8571 16.7695 13.8571 16.4285Z" stroke="white" stroke-width="2" stroke-linecap="round" stroke-linejoin="round"/>
<path d="M16.4286 0.999965V15.1428" stroke="white" stroke-width="2" stroke-linecap="round" stroke-linejoin="round"/>
<path d="M16.4286 17.7143V21.5714" stroke="white" stroke-width="2" stroke-linecap="round" stroke-linejoin="round"/>
<path fill-rule="evenodd" clip-rule="evenodd" d="M7.42859 6.14287C7.42859 5.80188 7.56405 5.47486 7.80517 5.23374C8.04628 4.99262 8.37331 4.85716 8.7143 4.85716H11.2857C11.6267 4.85716 11.9538 4.99262 12.1949 5.23374C12.436 5.47486 12.5714 5.80188 12.5714 6.14287C12.5714 6.48387 12.436 6.81089 12.1949 7.05201C11.9538 7.29313 11.6267 7.42859 11.2857 7.42859H8.7143C8.37331 7.42859 8.04628 7.29313 7.80517 7.05201C7.56405 6.81089 7.42859 6.48387 7.42859 6.14287V6.14287Z" stroke="white" stroke-width="2" stroke-linecap="round" stroke-linejoin="round"/>
<path d="M10 7.42855V21.5714" stroke="white" stroke-width="2" stroke-linecap="round" stroke-linejoin="round"/>
<path d="M10 1.00003V4.85718" stroke="white" stroke-width="2" stroke-linecap="round" stroke-linejoin="round"/>
</svg>
