<svg width="4" height="18" viewBox="0 0 4 18" fill="none" xmlns="http://www.w3.org/2000/svg">
<path d="M0 1.61798C0 2.04709 0.210714 2.45863 0.585787 2.76206C0.96086 3.06549 1.46957 3.23595 2 3.23595C2.53043 3.23595 3.03914 3.06549 3.41421 2.76206C3.78929 2.45863 4 2.04709 4 1.61798C4 1.18886 3.78929 0.777324 3.41421 0.473895C3.03914 0.170465 2.53043 0 2 0C1.46957 0 0.96086 0.170465 0.585787 0.473895C0.210714 0.777324 0 1.18886 0 1.61798ZM3 5.86517H1C0.8625 5.86517 0.75 5.95618 0.75 6.06742V17.7978C0.75 17.909 0.8625 18 1 18H3C3.1375 18 3.25 17.909 3.25 17.7978V6.06742C3.25 5.95618 3.1375 5.86517 3 5.86517Z" fill="#116DDA"/>
</svg>
