<svg xmlns="http://www.w3.org/2000/svg" viewBox="0 0 56.33 14.53"><defs>
    <style>.cls-1{fill:#4eaf48;}.cls-2{fill:#1d3d71;}.cls-3{fill:#134389;}
    </style></defs><title>logo3_1</title><g id="Layer_2" data-name="Layer 2">
    <g id="Layer_1-2" data-name="Layer 1">
        <path class="cls-1" d="M23.55,11.66a4.45,4.45,0,0,0-.55-.18,4.55,4.55,0,0,1-.46-.14.73.73,0,0,1-.29-.19.43.43,0,0,1-.11-.32.57.57,0,0,1,.2-.44,1,1,0,0,1,.62-.17,1.75,1.75,0,0,1,.44.07,1.59,1.59,0,0,1,.41.21l.12-.28a1.57,1.57,0,0,0-.45-.22A1.82,1.82,0,0,0,23,9.92a1.38,1.38,0,0,0-.64.13.86.86,0,0,0-.51.79.74.74,0,0,0,.15.49,1,1,0,0,0,.36.27c.14.06.33.12.56.19a2.89,2.89,0,0,1,.46.14.75.75,0,0,1,.28.18.48.48,0,0,1,.11.32.52.52,0,0,1-.21.43,1,1,0,0,1-.63.17,1.39,1.39,0,0,1-.57-.12,1.13,1.13,0,0,1-.45-.29l-.13.27a1.19,1.19,0,0,0,.49.32,1.84,1.84,0,0,0,.66.12,1.42,1.42,0,0,0,.65-.13.91.91,0,0,0,.39-.33.88.88,0,0,0,.12-.46.72.72,0,0,0-.14-.48A1,1,0,0,0,23.55,11.66Z"/><path class="cls-1" d="M28.05,10.93a1.14,1.14,0,0,0-.61-.17,1.18,1.18,0,0,0-1,.62,1.53,1.53,0,0,0,0,1.32,1.27,1.27,0,0,0,.43.46,1.16,1.16,0,0,0,.61.16,1.13,1.13,0,0,0,.61-.16,1.27,1.27,0,0,0,.43-.46,1.53,1.53,0,0,0,0-1.32A1.17,1.17,0,0,0,28.05,10.93Zm.15,1.62a.88.88,0,0,1-.31.35.84.84,0,0,1-.45.12.81.81,0,0,1-.76-.47,1.24,1.24,0,0,1,0-1,.81.81,0,0,1,.76-.47.84.84,0,0,1,.45.12.88.88,0,0,1,.31.35,1.24,1.24,0,0,1,0,1Z"/><rect class="cls-1" x="31.05" y="9.75" width="0.32" height="3.55"/><path class="cls-1" d="M35.83,12.1a.93.93,0,0,1-.22.67A.7.7,0,0,1,35,13a.64.64,0,0,1-.52-.21.9.9,0,0,1-.18-.6V10.78H34v1.46a1.18,1.18,0,0,0,.26.81,1,1,0,0,0,.73.27,1,1,0,0,0,.5-.13.88.88,0,0,0,.34-.35v.46h.3V10.78h-.31Z"/><path class="cls-1" d="M39.77,13a.58.58,0,0,1-.19,0,.38.38,0,0,1-.3-.12.49.49,0,0,1-.1-.34v-1.5h.71v-.29h-.71v-.55h-.32v.55h-.42v.29h.42v1.52a.77.77,0,0,0,.18.54.66.66,0,0,0,.51.19.84.84,0,0,0,
        .27,0,.55.55,0,0,0,.22-.14l-.11-.24Z"/><path class="cls-1" d="M42.55,9.75a.2.2,0,0,0-.16.07.23.23,0,0,0-.07.17.22.22,0,0,0,.07.17.2.2,0,0,0,.16.07.22.22,0,0,0,.17-.07.29.29,0,0,0,.07-.18.26.26,0,0,0-.07-.16A.22.22,0,0,0,42.55,9.75Z"/><rect class="cls-1" x="42.39" y="10.78" width="0.32" height="2.52"/><path class="cls-1" d="M46.94,10.93a1.17,1.17,0,0,0-.61-.17,1.14,1.14,0,0,0-.61.17,1.1,1.1,0,0,0-.43.45,1.53,1.53,0,0,0,0,1.32,1.19,1.19,0,0,0,.43.46,1.13,1.13,0,0,0,.61.16,1.11,1.11,0,0,0,1-.62,1.44,1.44,0,0,0,0-1.32A1.08,1.08,0,0,0,46.94,10.93Zm.15,1.62a.81.81,0,0,1-.76.47.84.84,0,0,1-.45-.12.81.81,0,0,1-.31-.35,1.24,1.24,0,0,1,0-1,.81.81,0,0,1,.31-.35.84.84,0,0,1,.45-.12.81.81,0,0,1,.76.47,1.24,1.24,0,0,1,0,1Z"/><path class="cls-1" d="M51.13,10.76a1.12,1.12,0,0,0-.53.13.89.89,0,0,0-.36.36v-.47h-.3V13.3h.32V12a.93.93,0,0,1,.22-.67.75.75,0,0,1,.6-.24.67.67,0,0,1,.52.21.85.85,0,0,1,.18.59V13.3h.31V11.84a1.09,1.09,0,0,0-.26-.8A.92.92,0,0,0,51.13,10.76Z"/><path class="cls-1" d="M56.21,12.22a.61.61,0,0,0-.29-.19l-.45-.12-.36-.08a.5.5,0,0,1-.21-.13.3.3,0,0,1-.09-.23.37.37,0,0,1,.15-.3.77.77,0,0,1,.46-.11,1.13,1.13,0,0,1,.69.21l.14-.27a1.21,1.21,0,0,0-.38-.17,1.41,1.41,0,0,0-.45-.07,1.06,1.06,0,0,0-.68.2.67.67,0,0,0-.25.52.57.57,0,0,0,.13.4.72.72,0,0,0,.29.2l.46.12a1.71,1.71,0,0,1,.34.08.43.43,0,0,1,.22.12.29.29,0,0,1,.08.21.36.36,0,0,1-.15.31.85.85,0,0,1-.48.11,1.44,1.44,0,0,1-.46-.08,1.19,1.19,0,0,1-.37-.21l-.14.27a1.13,1.13,0,0,0,.41.22,1.61,1.61,0,0,0,.54.09,1.15,1.15,0,0,0,.71-.19.64.64,0,0,0,.26-.53A.56.56,0,0,0,56.21,12.22Z"/><path class="cls-2" d="M24.57,6.82H23l1-1a5.34,5.34,0,0,0,.48-.61,3.06,3.06,0,0,0,.33-.65,2.17,2.17,0,0,0,.11-.66,1.72,1.72,0,0,0-.2-.85,1.52,1.52,0,0,0-.59-.59,1.72,1.72,0,0,0-.9-.22,1.78,1.78,0,0,0-.74.18,2.25,2.25,0,0,0-.67.47,2.32,2.32,0,0,0-.22.25.43.43,0,0,0-.09.26.38.38,0,0,0,.14.29.45.45,0,0,0,.31.13l.17,0a.39.39,0,0,0,.19-.16,1.48,1.48,0,0,1,.4-.39.86.86,0,0,1,.46-.15.8.8,0,0,1,.4.11,1,1,0,0,1,.3.31A.79.79,0,0,1,24,3.9a1.13,1.13,0,0,1-.17.58,3,3,0,0,1-.44.61l-1.68,1.8a.48.48,0,0,0-.14.34.43.43,0,0,0,.12.31.41.41,0,0,0,.31.12h2.62a.47.47,0,0,0,.31-.11.41.41,0,0,0,.12-.3.41.41,0,0,0-.43-.43Z"/><path class="cls-2" d="M29.44,6.59a.53.53,0,0,0-.32,0,1.36,1.36,0,0,1-.4.14,1.84,1.84,0,0,1-.41,0,2.23,2.23,0,0,1-.7-.11,1.48,1.48,0,0,1-.56-.35,1.54,1.54,0,0,1-.38-.57A2.28,2.28,0,0,1,26.54,5a2.15,2.15,0,0,1,.12-.73A1.52,1.52,0,0,1,27,3.67a1.59,1.59,0,0,1,.56-.38,2.08,2.08,0,0,1,.74-.13,1.86,1.86,0,0,1,.42,0,1.63,1.63,0,0,1,.39.13.63.63,0,0,0,.32.06.35.35,0,0,0,.26-.15.44.44,0,0,0,.11-.39.41.41,0,0,0-.23-.32A2.61,2.61,0,0,0,29,2.32a3,3,0,0,0-.66-.08,3.08,3.08,0,0,0-1.11.2,2.78,2.78,0,0,0-.88.57,2.71,2.71,0,0,0-.58.87A3,3,0,0,0,25.54,5a3,3,0,0,0,.22,1.21,2.44,2.44,0,0,0,.61.86,2.58,2.58,0,0,0,.89.52,3,3,0,0,0,1,.18,3.25,3.25,0,0,0,.44,0l.42-.1a3.69,3.69,0,0,0,.42-.17.42.42,0,0,0,.23-.3.46.46,0,0,0-.11-.39A.38.38,0,0,0,29.44,6.59Z"/><path class="cls-2" d="M36.69,2.28a.48.48,0,0,0-.34.13.43.43,0,0,0-.15.34V4.52H33.75V2.75a.46.46,0,0,0-.14-.34.48.48,0,0,0-.33-.13.5.5,0,0,0-.36.13.45.45,0,0,0-.13.34V7.2a.44.44,0,0,0,.13.33.44.44,0,0,0,.34.13.48.48,0,0,0,.34-.13.43.43,0,0,0,.15-.33V5.4H36.2V7.2a.45.45,0,0,0,.14.33.48.48,0,0,0,.33.13A.48.48,0,0,0,37,7.53a.44.44,0,0,0,.13-.33V2.75A.45.45,0,0,0,37,2.41.44.44,0,0,0,36.69,2.28Z"/><path class="cls-2" d="M41.35,4.08a2.1,2.1,0,0,0-.62-.45A1.86,1.86,0,0,0,40,3.47a1.92,1.92,0,0,0-1,.26,2,2,0,0,0-.74.75A2.32,2.32,0,0,0,38,5.66a2.23,2.23,0,0,0,.26,1.07,1.88,1.88,0,0,0,.74.74,2.25,2.25,0,0,0,1.13.27,2.11,2.11,0,0,0,.75-.13,1.82,1.82,0,0,0,.56-.29.48.48,0,0,0,.21-.38.36.36,0,0,0-.11-.27.36.36,0,0,0-.28-.11.54.54,0,0,0-.26.07l-.19.11a1.16,1.16,0,0,1-.27.11,1.91,1.91,0,0,1-.46,0,1.22,1.22,0,0,1-.58-.15,1.13,1.13,0,0,1-.44-.43,1.24,1.24,0,0,1-.14-.38h2.53a.5.5,0,0,0,.33-.12.39.39,0,0,0,.14-.3,2,2,0,0,0-.15-.78A2.1,2.1,0,0,0,41.35,4.08Zm-2.14.51a.78.78,0,0,1,.35-.21A1.44,1.44,0,0,1,40,4.32a1,1,0,0,1,.45.1,1,1,0,0,1,.35.28.67.67,0,0,1,.16.4v.06h-2A1,1,0,0,1,39,5,1,1,0,0,1,39.21,4.59Z"/><path class="cls-2" d="M46.06,3.47a.45.45,0,0,0-.33.14.49.49,0,0,0-.13.33V4a.67.67,0,0,0-.15-.14A1.57,1.57,0,0,0,45,3.57a2,2,0,0,0-.61-.1,1.74,1.74,0,0,0-.94.27,2.06,2.06,0,0,0-.67.76,2.45,2.45,0,0,0-.25,1.11,2.41,2.41,0,0,0,.25,1.1,2,2,0,0,0,.68.76,1.78,1.78,0,0,0,1,.27,1.63,1.63,0,0,0,.55-.09,2.19,2.19,0,0,0,.43-.24,1.22,1.22,0,0,0,.23-.22h0a.49.49,0,0,0,.13.33.44.44,0,0,0,.33.13.42.42,0,0,0,.33-.13.45.45,0,0,0,.14-.33V3.94a.46.46,0,0,0-.14-.34A.45.45,0,0,0,46.06,3.47Zm-1,3.26a1,1,0,0,1-.59.16,1.07,1.07,0,0,1-.59-.16,1.2,1.2,0,0,1-.39-.47,1.38,1.38,0,0,1-.14-.65A1.39,1.39,0,0,1,43.53,5a1.11,1.11,0,0,1,.39-.46,1,1,0,0,1,.59-.17,1,1,0,0,1,.59.17,1.13,1.13,0,0,1,.4.46,1.6,1.6,0,0,1,0,1.31A1.23,1.23,0,0,1,45.1,6.73Z"/><path class="cls-2" d="M48.07,2a.48.48,0,0,0-.47.47V7.2a.49.49,0,0,0,.13.33.48.48,0,0,0,.66,0,.45.45,0,0,0,.14-.33V2.44a.49.49,0,0,0-.13-.33A.44.44,0,0,0,48.07,2Z"/><path class="cls-2" d="M51.45,4.47a.45.45,0,0,0,.31-.12.4.4,0,0,0,.12-.29.41.41,0,0,0-.12-.31.45.45,0,0,0-.31-.12H50.9v-.5a.48.48,0,0,0-.12-.33.45.45,0,0,0-.33-.14.48.48,0,0,0-.34.14.44.44,0,0,0-.13.33v.5h-.35a.45.45,0,0,0-.31.11.42.42,0,0,0-.13.3.44.44,0,0,0,.13.31.41.41,0,0,0,.31.12H50V6.59a1.4,1.4,0,0,0,.11.6.91.91,0,0,0,.29.32,1,1,0,0,0,.37.13,2.3,2.3,0,0,0,.36,0,1,1,0,0,0,.5-.13.42.42,0,0,0,.24-.36.41.41,0,0,0-.09-.28.27.27,0,0,0-.2-.09.47.47,0,0,0-.17,0,.47.47,0,0,1-.17,0,.41.41,0,0,1-.16,0,.23.23,0,0,1-.12-.1.39.39,0,0,1,0-.17V4.47Z"/><path class="cls-2" d="M56.13,4.34a1.29,1.29,0,0,0-.4-.63,1.28,1.28,0,0,0-.84-.24,1.4,1.4,0,0,0-.47.08,1.79,1.79,0,0,0-.39.21,1.63,1.63,0,0,0-.3.28.83.83,0,0,0-.08.12V2.44a.44.44,0,0,0-.13-.33A.45.45,0,0,0,53.19,2a.42.42,0,0,0-.33.14.44.44,0,0,0-.13.33V7.2a.44.44,0,0,0,.13.33.42.42,0,0,0,.33.13.44.44,0,0,0,.46-.46v-2a1,1,0,0,1,.1-.46.82.82,0,0,1,.31-.33,1,1,0,0,1,.5-.12.8.8,0,0,1,.47.12.65.65,0,0,1,.22.33,1.6,1.6,0,0,1,.06.46v2a.44.44,0,0,0,.46.46.42.42,0,0,0,.33-.13.44.44,0,0,0,.13-.33v-2A3.51,3.51,0,0,0,56.13,4.34Z"/><path class="cls-1" d="M4.08,3C5,7.16,8.24,6.83,10.66,10.48a17.53,17.53,0,0,0-2-5.31A5.67,5.67,0,0,0,4.08,3Z"/><path class="cls-3" d="M15.7,1.75c-3.11,1.92-1.85,5.08-4,8.88a16.41,16.41,0,0,0,3.24-4A5.91,5.91,0,0,0,15.7,1.75Z"/><path class="cls-3" d="M18,5.91c-2.46-.07-3,3-5.7,4.94A9.25,9.25,0,0,0,15.7,9.34,5.4,5.4,0,0,0,18,5.91Z"/><path class="cls-1" d="M4.59,11.67c1.57,1,3-.57,5.31-.57a7.37,7.37,0,0,0-2.67-.47A3.47,3.47,0,0,0,4.59,11.67Z"/><path class="cls-3" d="M8.9,0c-1,5.21,1.45,3.79,2.28,10.63.33-1.37,1.3-4.22,1.11-6.19A6.86,6.86,0,0,0,8.9,0Z"/><path class="cls-1" d="M3.35,9c2,2.07,4.11.54,7,1.73A10.7,10.7,0,0,0,7.18,8.35,4.68,4.68,0,0,0,3.35,9Z"/><path class="cls-1" d="M4.38,14.42c3.6.65,8-1.87,13.23-1C13,11.6,7.64,14.49,4.38,14.42Z"/><path class="cls-3" d="M5.81,12.72a6.85,6.85,0,0,1-3.63-.52A7.91,7.91,0,0,1,0,10.68a5.81,5.81,0,0,0,6,3c3.3-.27,7.08-2.13,11.08-1l.55.17C13.66,9.52,9.78,12.31,5.81,12.72Z"/></g></g></svg>