<svg width="22" height="22" viewBox="0 0 22 22" fill="none" xmlns="http://www.w3.org/2000/svg">
<path d="M15.4444 15.4444L19.8889 19.8889M19.8889 15.4444L15.4444 19.8889L19.8889 15.4444ZM5.44444 11L11 16.5556L9.33333 18.2222C8.97074 18.5968 8.53723 18.8954 8.05806 19.1008C7.57889 19.3061 7.06365 19.4141 6.54235 19.4183C6.02105 19.4225 5.50412 19.323 5.02168 19.1254C4.53924 18.9279 4.10093 18.6363 3.73231 18.2677C3.36368 17.8991 3.0721 17.4608 2.87456 16.9783C2.67701 16.4959 2.57746 15.979 2.58169 15.4577C2.58592 14.9364 2.69386 14.4211 2.89921 13.9419C3.10456 13.4628 3.40321 13.0293 3.77778 12.6667L5.44444 11ZM16.5556 11L11 5.44444L12.6667 3.77778C13.0293 3.40321 13.4628 3.10456 13.9419 2.89921C14.4211 2.69386 14.9364 2.58592 15.4577 2.58169C15.979 2.57746 16.4959 2.67701 16.9783 2.87456C17.4608 3.0721 17.8991 3.36368 18.2677 3.73231C18.6363 4.10093 18.9279 4.53924 19.1254 5.02168C19.323 5.50412 19.4225 6.02105 19.4183 6.54235C19.4141 7.06365 19.3061 7.57889 19.1008 8.05806C18.8954 8.53723 18.5968 8.97074 18.2222 9.33333L16.5556 11ZM1 21L3.77778 18.2222L1 21ZM18.2222 3.77778L21 1L18.2222 3.77778ZM8.77778 9.88889L6.55556 12.1111L8.77778 9.88889ZM12.1111 13.2222L9.88889 15.4444L12.1111 13.2222Z" stroke="#C5C5C5" stroke-width="1.5" stroke-linecap="round" stroke-linejoin="round"/>
</svg>
