<svg width="20" height="20" viewBox="0 0 20 20" fill="none" xmlns="http://www.w3.org/2000/svg">
<circle cx="10" cy="10" r="10" fill="#EDEEED"/>
<path d="M8.82962 5.00005C8.93634 4.99969 9.0418 5.02324 9.13823 5.06897C9.23466 5.1147 9.31962 5.18145 9.38686 5.26431L12.8375 9.54962C12.9426 9.67742 13 9.83772 13 10.0031C13 10.1686 12.9426 10.3289 12.8375 10.4567L9.26541 14.742C9.14414 14.8878 8.96989 14.9796 8.78098 14.997C8.59207 15.0144 8.40398 14.9561 8.25808 14.8348C8.11219 14.7136 8.02044 14.5394 8.00302 14.3505C7.98561 14.1617 8.04395 13.9736 8.16521 13.8278L11.3586 9.99958L8.27237 6.17137C8.18501 6.06653 8.12952 5.93887 8.11246 5.80349C8.0954 5.66811 8.11749 5.53068 8.17611 5.40746C8.23473 5.28424 8.32743 5.18038 8.44325 5.10818C8.55906 5.03598 8.69314 4.99846 8.82962 5.00005Z" fill="#C3CAC3"/>
</svg>
